<svg width="309" height="387" viewBox="0 0 309 387" fill="none" xmlns="http://www.w3.org/2000/svg">
    <path d="M114.569 307.285C114.569 307.285 84.7773 296.253 81.2933 289.195C77.8147 282.129 65.912 249.609 49.4733 248.079C45.7133 247.725 44.756 250.491 44.756 250.491C44.756 250.491 28.82 237.172 16.4653 240.935C4.10401 244.701 25.9053 277.408 25.9053 277.408C25.9053 277.408 76.7667 365.564 188.86 347.425C300.956 329.295 114.569 307.285 114.569 307.285Z" fill="#DDAB7C"/>
    <path d="M294.449 386.753C294.449 386.753 282.347 367.001 245.829 370.611C209.319 374.225 169.852 378.002 150.436 371.723C130.764 365.347 76.4573 356.101 58.9133 336.908C41.6853 318.052 31.0747 309.772 27.6787 300.079C25.296 293.259 12.54 255.075 14.7427 251.524C16.9493 247.964 33.4267 247.835 43.0587 267.724C49.3573 280.711 51.7227 295.049 51.7227 295.049C51.7227 295.049 83.0027 315.44 93.112 320.491C103.216 325.547 179.412 347.197 182.639 341.221C185.869 335.249 117.968 323.516 114.556 315.517C110.348 305.647 120.092 291.847 148.496 297.887C176.907 303.928 183.2 305.687 190.487 304.84C197.776 303.993 280.577 284.435 294.449 386.753" fill="#EBBA8E"/>
    <path d="M28.3893 241.455C28.3893 241.455 28.8987 241.577 29.8413 241.817C30.776 242.043 32.1947 242.475 33.8707 243.217C37.2493 244.653 41.772 247.531 46.028 252.021C50.3213 256.476 54.3627 262.383 57.8107 269.04C59.5427 272.365 61.0853 275.901 62.556 279.511C63.2733 281.32 64.0013 283.145 64.6333 284.993L65.5987 287.735L66.0733 289.036L66.1867 289.307L66.2373 289.429L66.2627 289.495C66.444 289.836 66.0253 289.068 66.0827 289.163L66.1093 289.2C66.312 289.52 66.3053 289.364 66.2413 289.299C67.2667 290.151 69.164 291.437 70.752 292.451C72.436 293.521 74.1093 294.588 75.7733 295.649C79.1387 297.748 82.544 299.688 85.8053 301.632C92.3693 305.445 98.588 308.884 103.995 311.707C109.404 314.531 114.017 316.7 117.331 318.1C120.639 319.489 122.629 320.145 122.629 320.145C122.629 320.145 122.105 320.087 121.129 319.975C120.151 319.849 118.707 319.649 116.907 319.256C113.288 318.52 108.22 317.048 102.368 314.821C96.5027 312.6 89.8533 309.625 82.968 306.04C79.4973 304.292 76.0387 302.285 72.5307 300.217C70.7853 299.172 69.016 298.123 67.2867 296.972C65.5067 295.745 63.9787 294.795 61.9547 293.009C61.5307 292.599 61.152 292.105 61.092 292.001L61.068 291.961L60.84 291.549L60.8013 291.443L60.7147 291.231L60.5547 290.824L60.052 289.375L59.1293 286.611C58.5213 284.801 57.9147 282.991 57.308 281.2C56.068 277.64 54.6973 274.193 53.2533 270.904C50.4093 264.315 47.084 258.433 43.5693 253.829C40.0947 249.183 36.3067 245.943 33.34 244.069C31.8627 243.119 30.6467 242.449 29.7413 242.064C28.8627 241.663 28.3893 241.455 28.3893 241.455" fill="#CD9667"/>
    <path d="M30.7106 253.087C30.7106 253.087 31.2986 253.527 32.4 254.351C32.9666 254.747 33.62 255.273 34.3453 255.957C35.1013 256.615 35.9493 257.393 36.792 258.347C40.3413 262.037 44.1053 268.327 47.128 276.289C48.6573 280.261 50.0346 284.635 51.6773 289.152C52.104 290.273 52.5373 291.409 52.9813 292.559C53.468 293.669 53.8693 294.965 54.4973 295.653C55.9333 297.377 58.144 298.957 60.3773 300.404C69.532 306.184 80.396 311.12 91.3213 315.688C102.301 320.197 113.36 324.587 123.953 328.169C134.548 331.725 144.473 334.995 153.164 337.199C161.844 339.397 169.197 340.923 174.44 341.14C177.045 341.253 179.108 341.125 180.475 340.812C181.836 340.499 182.491 340.121 182.491 340.121C182.491 340.121 181.891 340.567 180.539 341.017C179.197 341.472 177.1 341.848 174.429 341.905C169.084 342.016 161.456 341.243 152.585 339.313C143.711 337.419 133.444 334.821 122.749 331.257C112.045 327.713 100.691 323.733 89.7 318.956C84.204 316.581 78.764 314.079 73.4946 311.439C68.2533 308.76 63.0946 306.067 58.488 302.791C56.196 301.124 53.9693 299.468 52.1853 297.1C51.2093 295.725 50.9866 294.532 50.5013 293.363C50.0973 292.179 49.6973 291.008 49.3053 289.849C47.8813 285.233 46.536 280.875 45.2946 276.845C42.8106 268.848 39.5373 262.54 36.284 258.719C35.5266 257.724 34.772 256.907 34.084 256.208C33.4293 255.484 32.82 254.904 32.2866 254.468C31.26 253.568 30.7106 253.087 30.7106 253.087" fill="#CD9667"/>
    <path d="M137.837 321.993C137.837 321.993 121.137 320.028 117.511 314.707C114.791 310.728 119.971 303.375 122.596 302.604C126.984 301.315 141.517 308.192 141.517 308.192L137.837 321.993Z" fill="#F0CCAB"/>
    <path d="M137.837 321.993C137.837 321.993 129.613 314.392 141.517 308.192L137.837 321.993Z" fill="#F6DFC8"/>
    <path d="M179.9 133.097H152.945V126.359H179.9V133.097Z" fill="#49494A"/>
    <path d="M173.212 264.776H160.015V131.691H173.212V264.776" fill="#49494A"/>
    <path d="M188.509 261.413H148.081V254.665H188.509V261.413Z" fill="#49494A"/>
    <path d="M166.423 153.689C153.444 153.689 144.748 148.779 136.339 144.029C126.251 138.335 115.831 132.445 96.504 134.02L95.9547 127.304C117.323 125.552 129.185 132.259 139.648 138.165C148 142.877 155.213 146.945 166.423 146.945V153.689Z" fill="#49494A"/>
    <path d="M166.608 153.689V146.945C177.821 146.945 185.032 142.877 193.387 138.165C203.851 132.259 215.719 125.563 237.079 127.304L236.529 134.02C217.205 132.436 206.788 138.335 196.699 144.029C188.287 148.779 179.591 153.689 166.608 153.689" fill="#49494A"/>
    <path d="M201.145 268.148H135.723V261.413H201.145V268.148Z" fill="#49494A"/>
    <path d="M174.097 116.061C174.097 120.197 170.744 123.555 166.608 123.555C162.476 123.555 159.124 120.197 159.124 116.061C159.124 111.925 162.476 108.577 166.608 108.577C170.744 108.577 174.097 111.925 174.097 116.061Z" fill="#363536"/>
    <path d="M84.0293 211.048L81.8506 210.507L101.877 130.124L104.061 130.669L84.0293 211.048" fill="#49494A"/>
    <path d="M121.907 211.048L101.877 130.669L104.061 130.124L124.089 210.507L121.907 211.048" fill="#49494A"/>
    <path d="M104.095 212.461H101.845V130.397H104.095V212.461Z" fill="#49494A"/>
    <path d="M213.935 211.048L211.751 210.507L231.781 130.124L233.968 130.669L213.935 211.048" fill="#49494A"/>
    <path d="M251.812 211.048L231.781 130.669L233.968 130.124L253.995 210.507L251.812 211.048" fill="#49494A"/>
    <path d="M102.969 210.231H81.2546C81.2546 210.231 82.8773 224.235 102.969 224.235C123.059 224.235 124.684 210.231 124.684 210.231H102.969Z" fill="#49494A"/>
    <path d="M233.999 212.461H231.751V130.397H233.999V212.461Z" fill="#49494A"/>
    <path d="M110.456 130.397C110.456 134.529 107.103 137.883 102.969 137.883C98.8347 137.883 95.48 134.529 95.48 130.397C95.48 126.257 98.8347 122.909 102.969 122.909C107.103 122.909 110.456 126.257 110.456 130.397Z" fill="#363536"/>
    <path d="M239.987 130.397C239.987 134.529 236.632 137.883 232.5 137.883C228.365 137.883 225.015 134.529 225.015 130.397C225.015 126.257 228.365 122.909 232.5 122.909C236.632 122.909 239.987 126.257 239.987 130.397Z" fill="#363536"/>
    <path d="M232.872 210.231H211.163C211.163 210.231 212.781 224.235 232.872 224.235C252.965 224.235 254.588 210.231 254.588 210.231H232.872Z" fill="#49494A"/>
    <path d="M124.684 210.231H102.969V224.235C123.059 224.235 124.684 210.231 124.684 210.231Z" fill="#363536"/>
    <path d="M173.212 264.776H166.609V131.691H173.212V264.776" fill="#363536"/>
    <path d="M254.587 210.231H232.872V224.235C252.963 224.235 254.587 210.231 254.587 210.231Z" fill="#363536"/>
    <path d="M188.509 261.413H166.609V254.665H188.509V261.413Z" fill="#363536"/>
    <path d="M201.145 268.148H166.609V261.413H201.145V268.148Z" fill="#363536"/>
    <path d="M179.9 133.097H166.609V126.359H179.9V133.097Z" fill="#363536"/>
    <path d="M194.732 56.9413C194.732 56.9413 226.375 61.884 231.399 68.1013C236.417 74.324 255.5 103.772 271.915 102.048C275.671 101.656 275.972 98.7666 275.972 98.7666C275.972 98.7666 294.599 108.66 305.807 102.563C317.031 96.4573 288.229 68.7653 288.229 68.7653C288.229 68.7653 218.327 -7.42137 112.935 32.2693C7.53602 71.956 194.732 56.9413 194.732 56.9413" fill="#DDAB7C"/>
    <path d="M0.733337 14.5254C0.733337 14.5254 17.0853 31.4574 51.9453 20.7734C86.8013 10.0867 124.508 -1.33731 144.921 0.994691C165.607 3.37069 220.799 1.76402 242.341 17.0853C263.497 32.136 275.764 38.1494 281.305 46.9587C285.195 53.1547 306.409 87.9734 305.069 91.8747C303.727 95.7867 287.652 99.14 273.684 81.5907C264.552 70.1334 258.957 56.584 258.957 56.584C258.957 56.584 223.715 42.7854 212.677 39.8307C201.647 36.8694 122.221 30.64 120.436 37.112C118.647 43.584 187.695 41.7454 192.861 48.8947C199.236 57.7147 192.873 73.1107 163.732 72.7747C134.583 72.4374 128.025 71.952 121.1 74.2067C114.169 76.4627 37.7293 111.804 0.733337 14.5254" fill="#EBBA8E"/>
    <path d="M294.036 104.391C294.036 104.391 293.512 104.369 292.533 104.319C291.572 104.283 290.084 104.139 288.276 103.741C284.644 102.999 279.568 101.073 274.377 97.5213C269.163 94.0066 263.859 89.0266 258.964 83.1946C256.511 80.2853 254.195 77.1333 251.929 73.8933C250.815 72.264 249.684 70.624 248.643 68.9413L247.072 66.452L246.308 65.2733L246.137 65.0293L246.059 64.9186L246.021 64.8613C245.764 64.564 246.351 65.232 246.273 65.1506L246.237 65.1186C245.967 64.8466 246.007 64.996 246.084 65.0493C244.888 64.4173 242.74 63.532 240.955 62.8533C239.064 62.1373 237.184 61.4213 235.312 60.7106C231.545 59.3186 227.771 58.0906 224.139 56.8293C216.851 54.3893 209.988 52.248 204.055 50.5467C198.12 48.848 193.117 47.6306 189.559 46.912C186.007 46.2026 183.911 45.952 183.911 45.952C183.911 45.952 184.433 45.9066 185.417 45.824C186.404 45.7546 187.86 45.6666 189.707 45.6986C193.412 45.7093 198.701 46.1546 204.929 47.1853C211.173 48.2053 218.355 49.8106 225.903 51.9653C229.695 52.9933 233.535 54.2773 237.437 55.612C239.383 56.2906 241.353 56.9693 243.304 57.7533C245.325 58.604 247.037 59.236 249.424 60.584C249.932 60.9013 250.417 61.308 250.496 61.3986L250.532 61.432L250.847 61.7906L250.912 61.8866L251.045 62.0773L251.293 62.444L252.117 63.7626L253.651 66.284C254.659 67.9306 255.668 69.5826 256.668 71.2133C258.696 74.448 260.827 77.5506 262.992 80.48C267.281 86.3626 271.879 91.4586 276.368 95.2693C280.828 99.1306 285.271 101.555 288.601 102.805C290.26 103.444 291.604 103.86 292.579 104.059C293.528 104.279 294.036 104.391 294.036 104.391" fill="#CD9667"/>
    <path d="M289.104 93.4747C289.104 93.4747 288.429 93.1627 287.164 92.5733C286.517 92.2973 285.759 91.9107 284.896 91.3827C284.005 90.8893 282.996 90.296 281.957 89.528C277.64 86.616 272.523 81.2066 267.744 74.0186C265.341 70.4333 262.992 66.432 260.353 62.3373C259.679 61.3253 258.996 60.3027 258.297 59.2653C257.567 58.2733 256.877 57.0867 256.107 56.536C254.309 55.1333 251.784 54.0253 249.272 53.048C239.001 49.1933 227.251 46.4973 215.528 44.1747C203.764 41.9173 191.952 39.7947 180.779 38.3693C169.609 36.9693 159.163 35.72 150.163 35.2693C141.177 34.82 133.639 34.772 128.467 35.5853C125.896 35.9853 123.909 36.516 122.643 37.0893C121.385 37.6626 120.832 38.16 120.832 38.16C120.832 38.16 121.317 37.608 122.533 36.9027C123.741 36.1933 125.704 35.416 128.301 34.8373C133.5 33.6813 141.133 32.9426 150.244 33.088C159.351 33.2026 169.977 33.7293 181.249 35.116C192.521 36.4813 204.528 38.148 216.363 40.6627C222.28 41.9067 228.171 43.2853 233.924 44.832C239.661 46.4227 245.317 48.0453 250.572 50.344C253.193 51.5253 255.748 52.7053 258.036 54.6693C259.304 55.8227 259.795 56.9453 260.536 57.992C261.203 59.0707 261.861 60.1387 262.511 61.1933C264.959 65.424 267.273 69.4187 269.409 73.116C273.668 80.444 278.313 85.968 282.367 89.064C283.336 89.888 284.261 90.54 285.092 91.0866C285.897 91.6653 286.627 92.1147 287.247 92.436C288.457 93.1147 289.104 93.4747 289.104 93.4747" fill="#CD9667"/>
    <path d="M168.625 47.1267C168.625 47.1267 185.393 45.776 190.157 50.264C193.729 53.6187 190.352 61.8213 187.96 63.088C183.969 65.208 168.189 61.336 168.189 61.336L168.625 47.1267Z" fill="#F0CCAB"/>
    <path d="M168.625 47.1267C168.625 47.1267 178.404 52.9427 168.189 61.336L168.625 47.1267Z" fill="#F6DFC8"/>
</svg>
