<?xml version="1.0" encoding="UTF-8" standalone="no"?>
<!-- Created with Inkscape (http://www.inkscape.org/) -->

<svg
   version="1.1"
   id="svg2"
   xml:space="preserve"
   width="1025.3333"
   height="704"
   viewBox="0 0 1025.3333 704"
   sodipodi:docname="1911.i305.029.P.m005.c20.lawyer justice law set-07.eps"
   xmlns:inkscape="http://www.inkscape.org/namespaces/inkscape"
   xmlns:sodipodi="http://sodipodi.sourceforge.net/DTD/sodipodi-0.dtd"
   xmlns="http://www.w3.org/2000/svg"
   xmlns:svg="http://www.w3.org/2000/svg"><defs
     id="defs6" /><sodipodi:namedview
     id="namedview4"
     pagecolor="#ffffff"
     bordercolor="#666666"
     borderopacity="1.0"
     inkscape:pageshadow="2"
     inkscape:pageopacity="0.0"
     inkscape:pagecheckerboard="0" /><g
     id="g8"
     inkscape:groupmode="layer"
     inkscape:label="ink_ext_XXXXXX"
     transform="matrix(1.3333333,0,0,-1.3333333,0,704)"><g
       id="g10"
       transform="scale(0.1)"><path
         d="m 2484.61,2269.35 c -0.53,0 -1.03,0.33 -1.21,0.86 L 1839.02,4123.8 1131.67,2270.17 c -0.25,-0.66 -0.99,-0.97 -1.65,-0.74 -0.66,0.26 -1,1 -0.74,1.67 L 1837.87,4128 c 0.19,0.5 0.67,0.83 1.2,0.83 h 0.02 c 0.54,-0.01 1.01,-0.36 1.2,-0.87 l 645.54,-1856.9 c 0.22,-0.68 -0.13,-1.41 -0.8,-1.64 -0.14,-0.05 -0.28,-0.07 -0.42,-0.07"
         style="fill:#06005a;fill-opacity:1;fill-rule:nonzero;stroke:none"
         id="path12" /><path
         d="m 5121.09,2296.48 c -0.16,0 -0.31,0.03 -0.47,0.09 -0.66,0.27 -0.98,1.01 -0.72,1.67 l 717.64,1828.47 c 0.19,0.51 0.66,0.78 1.23,0.82 0.53,-0.01 1,-0.36 1.18,-0.86 l 636.49,-1828.48 c 0.23,-0.67 -0.12,-1.41 -0.8,-1.64 -0.66,-0.25 -1.39,0.12 -1.63,0.8 l -635.34,1825.2 -716.38,-1825.26 c -0.21,-0.49 -0.69,-0.81 -1.2,-0.81"
         style="fill:#06005a;fill-opacity:1;fill-rule:nonzero;stroke:none"
         id="path14" /><path
         d="m 6554.85,555.91 -57.35,122.801 c 0,-136.109 -396.39,-168.609 -885.38,-168.609 -488.98,0 -885.38,10.257 -885.38,168.609 0,2.168 0.42,4.258 0.71,6.391 l -0.71,1.218 -57.58,-132.828 c -3.74,-7.5 -5.72,-15.32 -5.72,-23.48 0,-169.66 424.74,-180.66 948.68,-180.66 523.95,0 948.69,34.828 948.69,180.66 0,9.078 -2.07,17.699 -5.96,25.898"
         style="fill:#b6b2ff;fill-opacity:1;fill-rule:nonzero;stroke:none"
         id="path16" /><path
         d="m 5612.12,837.051 c -479.61,0 -869.89,-43.403 -884.67,-151.949 -0.29,-2.133 -0.71,-4.223 -0.71,-6.391 0,-158.352 396.4,-168.609 885.38,-168.609 488.99,0 885.38,32.5 885.38,168.609 0,123.629 -396.39,158.34 -885.38,158.34"
         style="fill:#e3e3ff;fill-opacity:1;fill-rule:nonzero;stroke:none"
         id="path18" /><path
         d="m 2212.06,880.84 2499.5,584.89 c 59.46,13.92 119.49,-23.34 133.41,-82.81 l 10.36,-44.29 c 13.92,-59.46 -23.35,-119.49 -82.81,-133.41 l -2499.5,-584.9 -60.96,260.52"
         style="fill:#ff6476;fill-opacity:1;fill-rule:nonzero;stroke:none"
         id="path20" /><path
         d="m 1647.83,619.281 c -13.39,57.199 22.46,114.961 79.67,128.34 57.19,13.391 114.95,-22.461 128.33,-79.66 13.39,-57.199 -22.46,-114.949 -79.66,-128.34 -57.2,-13.383 -114.95,22.461 -128.34,79.66"
         style="fill:#ff6476;fill-opacity:1;fill-rule:nonzero;stroke:none"
         id="path22" /><path
         d="m 4801.06,1197.31 -67.52,288.54 c -10.36,44.29 17.39,88.99 61.67,99.35 44.27,10.36 88.98,-17.39 99.34,-61.66 l 67.52,-288.55 c 10.36,-44.28 -17.38,-88.98 -61.66,-99.34 -44.28,-10.37 -88.99,17.38 -99.35,61.66"
         style="fill:#fc4c66;fill-opacity:1;fill-rule:nonzero;stroke:none"
         id="path24" /><path
         d="m 5119.95,669.59 c 5.14,-21.93 27.28,-35.668 49.2,-30.539 l 595.23,139.281 c 21.93,5.137 35.68,27.277 30.54,49.207 -5.13,21.93 -27.27,35.66 -49.19,30.531 L 5150.49,718.789 c -21.92,-5.141 -35.67,-27.277 -30.54,-49.199"
         style="fill:#fc4c66;fill-opacity:1;fill-rule:nonzero;stroke:none"
         id="path26" /><path
         d="m 4927.03,1100.63 c 24.28,-103.732 129.01,-168.751 232.75,-144.47 l 472.3,110.52 c 103.74,24.27 168.75,129.01 144.48,232.75 -24.28,103.74 -129.02,168.75 -232.75,144.47 l -472.3,-110.52 c -103.74,-24.27 -168.75,-129.01 -144.48,-232.75"
         style="fill:#ff6476;fill-opacity:1;fill-rule:nonzero;stroke:none"
         id="path28" /><path
         d="m 4991.13,792.148 c 15.2,-64.937 80.76,-105.636 145.71,-90.437 l 628.7,147.121 c 64.95,15.199 105.64,80.758 90.45,145.699 -15.2,64.939 -80.76,105.639 -145.7,90.449 L 5081.57,937.859 C 5016.63,922.66 4975.93,857.09 4991.13,792.148"
         style="fill:#ff6476;fill-opacity:1;fill-rule:nonzero;stroke:none"
         id="path30" /><path
         d="m 4785.17,2100.28 c -5.14,21.93 8.61,44.07 30.54,49.2 l 595.22,139.29 c 21.93,5.13 44.07,-8.61 49.2,-30.54 5.13,-21.93 -8.61,-44.07 -30.54,-49.2 l -595.23,-139.29 c -21.92,-5.12 -44.06,8.61 -49.19,30.54"
         style="fill:#fc4c66;fill-opacity:1;fill-rule:nonzero;stroke:none"
         id="path32" /><path
         d="m 4803.53,1628.39 c -24.27,103.74 40.74,208.48 144.48,232.75 l 472.3,110.52 c 103.74,24.28 208.47,-40.74 232.74,-144.47 24.28,-103.74 -40.73,-208.48 -144.47,-232.75 l -472.3,-110.52 c -103.74,-24.28 -208.47,40.74 -232.75,144.47"
         style="fill:#ff6476;fill-opacity:1;fill-rule:nonzero;stroke:none"
         id="path34" /><path
         d="m 4865.25,1364.64 c -43,183.77 71.12,367.62 254.89,410.62 l 184.01,43.06 c 183.78,43.01 367.62,-71.11 410.63,-254.88 42.82,-183.02 -71.88,-367.8 -254.89,-410.63 l -184.01,-43.06 c -183.02,-42.82 -367.8,71.87 -410.63,254.89"
         style="fill:#fc4c66;fill-opacity:1;fill-rule:nonzero;stroke:none"
         id="path36" /><path
         d="m 4724.1,1933.29 c -15.2,64.94 25.5,130.5 90.44,145.7 l 628.71,147.12 c 64.94,15.2 130.51,-25.5 145.71,-90.44 15.19,-64.94 -25.51,-130.51 -90.45,-145.71 L 4869.8,1842.84 c -64.94,-15.19 -130.5,25.51 -145.7,90.45"
         style="fill:#ff6476;fill-opacity:1;fill-rule:nonzero;stroke:none"
         id="path38" /><path
         d="m 1750.41,643.289 c -26.37,112.703 44.26,226.492 156.96,252.859 l 376.61,88.133 c 112.7,26.369 226.48,-44.261 252.86,-156.961 26.37,-112.699 -44.26,-226.488 -156.96,-252.871 l -376.61,-88.117 c -112.7,-26.383 -226.49,44.258 -252.86,156.957"
         style="fill:#fc4c66;fill-opacity:1;fill-rule:nonzero;stroke:none"
         id="path40" /><path
         d="m 3835.97,815.262 c -415.93,0 -753.12,-71.453 -753.12,-159.602 0,-88.148 337.19,-159.601 753.12,-159.601 415.94,0 753.13,71.453 753.13,159.601 0,88.149 -337.19,159.602 -753.13,159.602"
         style="fill:#ffbc36;fill-opacity:1;fill-rule:nonzero;stroke:none"
         id="path42" /><path
         d="m 3835.97,496.059 c -415.93,0 -753.12,71.453 -753.12,159.601 v -79.961 c 0,-88.148 337.19,-159.609 753.12,-159.609 415.94,0 753.13,71.461 753.13,159.609 v 79.961 c 0,-88.148 -337.19,-159.601 -753.13,-159.601"
         style="fill:#ffaf22;fill-opacity:1;fill-rule:nonzero;stroke:none"
         id="path44" /><path
         d="m 4223.5,807.242 c -471.15,-101.101 -774.94,0.367 -774.94,0.367 h -1.89 c -14.03,-39.39 -23.44,-101.839 -23.44,-101.839 0,0 45.67,-78.7 406.48,-78.7 360.81,0 419.01,83.828 419.01,83.828 l -25.22,96.344"
         style="fill:#ffaf22;fill-opacity:1;fill-rule:nonzero;stroke:none"
         id="path46" /><path
         d="M 3967.72,1820.58 H 3736.76 L 3447.6,807.609 c 0,0 303.78,-101.468 774.94,-0.367 0.61,0.129 1.2,0.238 1.82,0.367 L 3967.72,1820.58"
         style="fill:#ffbc36;fill-opacity:1;fill-rule:nonzero;stroke:none"
         id="path48" /><path
         d="m 3698.89,4728.05 129.6,202.6 98.38,-202.6 46.19,-2907.47 h -230.97 l -43.2,2907.47"
         style="fill:#ffbc36;fill-opacity:1;fill-rule:nonzero;stroke:none"
         id="path50" /><path
         d="m 5203.25,2289.78 1288.12,14.5 c 0,0 3.78,-317.13 -171.04,-400 -174.83,-82.86 -785.14,-119.21 -978.24,51.85 -137.89,122.16 -138.84,333.65 -138.84,333.65"
         style="fill:#ffbc36;fill-opacity:1;fill-rule:nonzero;stroke:none"
         id="path52" /><path
         d="m 1130.48,2270.63 1288.12,4.24 c 0,0 3.78,-337.66 -171.05,-420.52 -174.82,-82.87 -773.2,-111.7 -978.23,51.84 -144.02,114.88 -138.84,364.44 -138.84,364.44"
         style="fill:#ffbc36;fill-opacity:1;fill-rule:nonzero;stroke:none"
         id="path54" /><path
         d="m 5625.55,3292.94 c -15.4,5.13 -29.94,-19.68 -29.94,-19.68 0,0 -1.13,4.38 -2.9,10.68 -2.31,8.28 -5.73,19.91 -9.29,29.98 -5.84,11.35 -13.13,19.24 -18.66,19.24 -12.84,0 -44.44,-11.13 -82.93,0.84 -38.49,11.98 -50.47,28.23 -56.46,39.35 -21.39,-29.08 -17.1,-127.46 -4.27,-166.81 12.83,-39.35 41.06,-58.17 82.97,-58.17 1.96,0 3.87,0.38 5.79,0.61 25.09,3.03 47.84,24.85 62.56,47.43 1.65,2.53 3.12,5.06 4.56,7.58 5.92,10.33 10.11,20.34 11.78,28.21 0,0 19.68,-9.4 36.79,9.41 17.1,18.82 15.39,46.2 0,51.33"
         style="fill:#fdb5b9;fill-opacity:1;fill-rule:nonzero;stroke:none"
         id="path56" /><path
         d="m 5591.85,3117.81 c -10.19,12.27 -20.5,29.51 -21.7,51.09 -0.5,9.04 0.52,18.27 2.27,27.51 -14.72,-22.58 -37.47,-44.4 -62.56,-47.43 12.56,-18.99 20.47,-35.68 25.06,-48.48 3.46,-9.66 5.08,-17.16 5.08,-21.42 0,0 20.53,-5.99 33.36,0 10.5,4.9 20.41,25.47 23.68,32.82 -1.7,1.8 -3.44,3.8 -5.19,5.91"
         style="fill:#f9a5a5;fill-opacity:1;fill-rule:nonzero;stroke:none"
         id="path58" /><path
         d="m 5591.85,3117.81 v 0 0"
         style="fill:#756bff;fill-opacity:1;fill-rule:nonzero;stroke:none"
         id="path60" /><path
         d="m 4672.59,1690.7 2.68,5.48 -129.29,3.93 142,-77.85 29.09,32.51 c -36.78,8.56 -44.48,35.93 -44.48,35.93"
         style="fill:#3423c7;fill-opacity:1;fill-rule:nonzero;stroke:none"
         id="path62" /><path
         d="m 4772.53,1894.83 -97.26,-198.65 -2.68,-5.48 c 0,0 7.7,-27.37 44.48,-35.93 l 166.74,175 c -43.57,11.38 -91.89,48.87 -111.28,65.06"
         style="fill:#fdb5b9;fill-opacity:1;fill-rule:nonzero;stroke:none"
         id="path64" /><path
         d="m 5112.88,1810.97 c -6.17,0.17 -10,0.35 -10,0.35 -3.43,-35.07 0,-167.67 0,-167.67 l 83.83,-8.55 c 8.69,5.07 50.46,148 63.09,191.79 -14.76,-5.22 -74.28,-24.14 -136.92,-15.92"
         style="fill:#fdb5b9;fill-opacity:1;fill-rule:nonzero;stroke:none"
         id="path66" /><path
         d="m 5102.88,1643.65 -102.66,-66.72 177.17,12.83 9.32,45.34 c -10.27,-5.99 -83.83,8.55 -83.83,8.55"
         style="fill:#3423c7;fill-opacity:1;fill-rule:nonzero;stroke:none"
         id="path68" /><path
         d="m 5186.71,1635.1 -83.83,8.55 c 0,0 73.56,-14.54 83.83,-8.55"
         style="fill:#3423c7;fill-opacity:1;fill-rule:nonzero;stroke:none"
         id="path70" /><path
         d="m 5972,2496.52 -388.37,30.8 c 0,0 -3.34,-0.71 -9.08,-1.95 -48.9,-10.53 -282.87,-61.39 -310.43,-76.32 -30.79,-16.68 -74.42,-78.27 -93.67,-133.45 -9.5,-27.25 -33.41,-148.45 -55.17,-264.14 -22.3,-118.54 -42.35,-231.29 -42.35,-231.29 13.19,-4.62 26.63,-7.45 39.95,-9.2 62.64,-8.22 122.16,10.7 136.92,15.92 2.26,0.8 3.63,1.33 3.63,1.33 0,0 74.85,190.97 101.8,258.98 26.94,68.01 64.15,187.63 64.15,187.63 0,0 206.17,1.85 286.58,0.14 80.41,-1.71 165.95,12.83 212.14,52.18 46.2,39.35 59.88,137.73 53.9,169.37"
         style="fill:#06005a;fill-opacity:1;fill-rule:nonzero;stroke:none"
         id="path72" /><path
         d="m 5597.04,3111.9 c -1.7,1.8 -3.44,3.8 -5.19,5.91 1.75,-2.11 3.49,-4.11 5.19,-5.91"
         style="fill:#f96574;fill-opacity:1;fill-rule:nonzero;stroke:none"
         id="path74" /><path
         d="m 5780.38,3166.34 c -11.98,41.91 -43.63,94.95 -91.53,124.03 -47.91,29.09 -51.33,43.63 -67.58,75.28 -16.26,31.65 -58.17,73.57 -113.77,76.14 -55.61,2.56 -94.62,-45.23 -82.13,-68.44 5.99,-11.12 17.97,-27.37 56.46,-39.35 38.49,-11.97 70.09,-0.84 82.93,-0.84 5.53,0 12.82,-7.89 18.66,-19.24 4.43,-8.63 12.19,-40.66 12.19,-40.66 0,0 14.54,24.81 29.94,19.68 15.39,-5.13 17.1,-32.51 0,-51.33 -17.11,-18.81 -36.79,-9.41 -36.79,-9.41 -2.08,-9.79 -7.93,-22.88 -16.34,-35.79 -1.75,-9.24 -2.77,-18.47 -2.27,-27.51 1.2,-21.58 11.51,-38.82 21.7,-51.09 v 0 c 1.75,-2.11 3.49,-4.11 5.19,-5.91 2.52,-2.69 4.97,-5.16 7.12,-7.16 11.98,-11.12 23.95,-41.06 33.58,-94.95 9.64,-53.89 43.41,-59.88 70.78,-55.6 27.38,4.27 71.86,38.49 83.84,82.12 0.14,0.5 0.18,1 0.31,1.5 11.3,43.14 -0.45,87.09 -12.29,128.53"
         style="fill:#f96574;fill-opacity:1;fill-rule:nonzero;stroke:none"
         id="path76" /><path
         d="m 5394.44,2512.31 c -108.41,-21.88 -229.29,-47.14 -262.48,-59.41 -59.03,-21.81 -146.28,-128.07 -193.76,-209.67 -47.47,-81.61 -174.51,-340.81 -174.51,-340.81 0,0 3.31,-2.97 8.84,-7.59 19.39,-16.19 67.71,-53.68 111.28,-65.06 2.02,-0.53 4.06,-1.14 6.06,-1.55 l 225.4,223.24 c 21.77,115.69 45.68,236.89 55.18,264.14 19.25,55.18 62.88,116.77 93.67,133.45 27.56,14.93 261.53,65.79 310.43,76.32 l 3.09,24.19 c -10.6,-2.51 -33.89,-7.29 -64.47,-13.44 -33.14,-6.67 -74.87,-14.95 -118.73,-23.81"
         style="fill:#000035;fill-opacity:1;fill-rule:nonzero;stroke:none"
         id="path78" /><path
         d="m 5955.74,2676.17 c -21.81,105.22 -58.16,202.74 -122.32,307.96 -11.88,19.48 -25.74,37.47 -40.75,53.68 -0.13,-0.5 -0.17,-1 -0.31,-1.5 -11.98,-43.63 -56.46,-77.85 -83.84,-82.12 -27.37,-4.28 -61.14,1.71 -70.78,55.6 -9.63,53.89 -21.6,83.83 -33.58,94.95 -2.15,2 -4.6,4.47 -7.12,7.16 -3.27,-7.35 -13.18,-27.92 -23.68,-32.82 -12.83,-5.99 -33.36,0 -33.36,0 0,4.26 -1.62,11.76 -5.08,21.42 -53.13,-7.75 -88.58,-24.88 -111.89,-82.16 -23.32,-57.31 -35.3,-242.09 -34.44,-307.1 0.77,-58.64 5.02,-176.4 5.85,-198.93 43.86,8.86 85.59,17.14 118.73,23.81 l 6.3,1.47 c 0,0 23.1,198.46 25.66,224.12 0,0 30.8,-178.79 32.51,-191.62 1.71,-12.83 0,-20.53 0,-20.53 l -3.74,-29.22 -28.77,-224.84 c 0,0 10.27,7.7 47.76,4.28 37.48,-3.43 60.03,-24.81 60.03,-24.81 0.1,-1.7 0.2,-5.11 0.23,-5.14 0,0 81.89,179.65 93.87,224.99 0,0 147.14,10.05 224.98,1.7 0,0 4.05,81.72 -16.26,179.65"
         style="fill:#756bff;fill-opacity:1;fill-rule:nonzero;stroke:none"
         id="path80" /><path
         d="m 5578.25,2206.87 c -0.71,4.16 -1.47,7.36 -1.47,7.36 0,0 0.54,-3.17 1.47,-7.36"
         style="fill:#d1cfff;fill-opacity:1;fill-rule:nonzero;stroke:none"
         id="path82" /><path
         d="m 5652.92,2274.97 c 0,0 -22.55,21.38 -60.03,24.81 -37.49,3.42 -47.76,-4.28 -47.76,-4.28 -16.25,-28.23 -17.1,-53.04 0,-78.7 17.11,-25.67 25.67,-32.51 31.65,-29.94 3.86,1.65 2.75,12.47 1.47,20.01 -0.93,4.19 -1.47,7.36 -1.47,7.36 0,0 0.76,-3.2 1.47,-7.36 1.74,-7.8 4.91,-19.17 8.8,-20.52 5.99,-2.06 11.12,27.88 11.12,27.88 0,0 -1.71,-23.45 5.99,-27.98 7.7,-4.52 17.96,26.27 17.96,26.27 0,0 1.71,-19.68 7.7,-21.39 5.77,-1.64 24.15,35.56 23.24,78.77 -0.04,1.69 -0.04,3.37 -0.14,5.07"
         style="fill:#fdb5b9;fill-opacity:1;fill-rule:nonzero;stroke:none"
         id="path84" /><path
         d="m 5601.59,3251.02 c -0.22,0 -0.44,0.06 -0.64,0.18 -0.61,0.35 -0.82,1.14 -0.47,1.75 0.32,0.55 7.97,13.6 17.12,19.27 0.61,0.37 1.39,0.19 1.77,-0.42 0.37,-0.6 0.18,-1.39 -0.42,-1.76 -8.6,-5.33 -16.17,-18.25 -16.24,-18.38 -0.24,-0.4 -0.67,-0.64 -1.12,-0.64"
         style="fill:#06005a;fill-opacity:1;fill-rule:nonzero;stroke:none"
         id="path86" /><path
         d="m 5459.59,3312.64 c -0.33,0 -0.65,0.12 -0.9,0.37 -0.16,0.16 -16.13,15.78 -38.29,12.87 -0.68,-0.08 -1.34,0.42 -1.44,1.11 -0.09,0.7 0.4,1.35 1.12,1.44 23.56,3.09 39.73,-12.92 40.42,-13.6 0.5,-0.51 0.51,-1.32 0.01,-1.82 -0.26,-0.25 -0.58,-0.37 -0.92,-0.37"
         style="fill:#06005a;fill-opacity:1;fill-rule:nonzero;stroke:none"
         id="path88" /><path
         d="m 5541.71,3308.34 c -0.34,0 -0.67,0.14 -0.93,0.41 -5.71,6.11 -24.76,9.27 -35.72,4.01 -0.64,-0.31 -1.41,-0.03 -1.71,0.6 -0.31,0.64 -0.04,1.41 0.61,1.72 11.98,5.75 32.31,2.24 38.7,-4.58 0.48,-0.52 0.45,-1.33 -0.07,-1.81 -0.24,-0.24 -0.56,-0.35 -0.88,-0.35"
         style="fill:#06005a;fill-opacity:1;fill-rule:nonzero;stroke:none"
         id="path90" /><path
         d="m 5454.03,3227.5 c -0.27,0 -0.53,0.09 -0.76,0.25 -0.35,0.26 -0.55,0.68 -0.52,1.12 0.44,6.49 4.33,63.57 5.63,67.47 0.21,0.67 0.96,1.05 1.62,0.81 0.68,-0.22 1.04,-0.95 0.81,-1.62 -0.88,-2.64 -3.63,-39.45 -5.37,-64.81 l 21.23,8.24 c 0.67,0.24 1.41,-0.07 1.65,-0.73 0.26,-0.66 -0.07,-1.4 -0.73,-1.66 l -23.1,-8.98 c -0.15,-0.06 -0.3,-0.09 -0.46,-0.09"
         style="fill:#06005a;fill-opacity:1;fill-rule:nonzero;stroke:none"
         id="path92" /><path
         d="m 5478.88,3191.18 c -5.18,0 -10.19,1.14 -14.09,4.22 -0.56,0.44 -0.65,1.25 -0.21,1.8 0.44,0.57 1.25,0.65 1.79,0.22 10.9,-8.59 32.35,-0.04 37.36,3.73 0.56,0.41 1.38,0.31 1.8,-0.26 0.43,-0.57 0.3,-1.37 -0.25,-1.79 -3.8,-2.84 -15.48,-7.92 -26.4,-7.92"
         style="fill:#06005a;fill-opacity:1;fill-rule:nonzero;stroke:none"
         id="path94" /><path
         d="m 5547.16,2748.65 c -0.61,0 -1.15,0.44 -1.27,1.07 -4.65,27.15 -30.02,136.7 -44.76,188.72 -0.19,0.68 0.2,1.39 0.88,1.58 0.71,0.21 1.38,-0.2 1.58,-0.88 14.77,-52.08 40.16,-161.79 44.83,-188.99 0.12,-0.7 -0.35,-1.36 -1.04,-1.48 -0.08,-0.01 -0.15,-0.02 -0.22,-0.02"
         style="fill:#06005a;fill-opacity:1;fill-rule:nonzero;stroke:none"
         id="path96" /><path
         d="m 5574.55,2524.08 c 0,0 -0.1,0 -0.16,0.02 -0.7,0.08 -1.21,0.72 -1.12,1.42 3.92,32.21 27.98,309.09 9.09,450.74 -0.09,0.7 0.39,1.34 1.1,1.44 0.84,0.06 1.34,-0.41 1.44,-1.1 18.92,-141.91 -5.15,-419.15 -9.08,-451.38 -0.08,-0.66 -0.63,-1.14 -1.27,-1.14"
         style="fill:#06005a;fill-opacity:1;fill-rule:nonzero;stroke:none"
         id="path98" /><path
         d="m 5747.02,2493.53 c -0.13,0 -0.27,0.02 -0.4,0.06 -0.67,0.23 -1.04,0.95 -0.82,1.62 54.2,164.37 57.03,375.51 41.87,466.46 -0.12,0.7 0.35,1.37 1.05,1.48 0.7,0.14 1.37,-0.36 1.48,-1.05 15.19,-91.21 12.37,-302.92 -41.96,-467.69 -0.18,-0.54 -0.68,-0.88 -1.22,-0.88"
         style="fill:#06005a;fill-opacity:1;fill-rule:nonzero;stroke:none"
         id="path100" /><path
         d="m 5112.41,2034.89 c -0.08,0 -0.16,0.01 -0.25,0.02 -0.69,0.14 -1.15,0.81 -1.01,1.51 0.42,2.11 41.62,211.8 58.06,279.48 15.54,64.03 43.63,105.54 88.37,130.63 32.47,18.21 101.91,33.22 182.32,50.62 22.55,4.87 45.88,9.92 69.11,15.21 0.69,0.13 1.37,-0.29 1.53,-0.98 0.15,-0.69 -0.28,-1.37 -0.97,-1.53 -23.24,-5.28 -46.57,-10.34 -69.13,-15.21 -80.2,-17.35 -149.47,-32.33 -181.6,-50.35 -44.69,-25.05 -71.57,-64.84 -87.15,-128.99 -16.42,-67.64 -57.61,-277.27 -58.02,-279.38 -0.12,-0.61 -0.66,-1.03 -1.26,-1.03"
         style="fill:#ffffff;fill-opacity:1;fill-rule:nonzero;stroke:none"
         id="path102" /><path
         d="m 5563.1,3393.45 c -0.37,0 -0.73,0.16 -0.99,0.47 -8.68,10.49 -32.1,26.06 -91.75,12.4 -0.73,-0.17 -1.38,0.28 -1.54,0.96 -0.16,0.69 0.28,1.38 0.96,1.54 60.98,13.95 85.27,-2.32 94.31,-13.26 0.45,-0.55 0.37,-1.36 -0.17,-1.81 -0.24,-0.2 -0.53,-0.3 -0.82,-0.3"
         style="fill:#06005a;fill-opacity:1;fill-rule:nonzero;stroke:none"
         id="path104" /><path
         d="m 5539.16,3346.47 c -6.42,0 -14.82,0.36 -25.59,1.44 -0.71,0.07 -1.22,0.7 -1.15,1.4 0.06,0.7 0.54,1.26 1.41,1.16 31.31,-3.14 42.38,-0.09 42.49,-0.05 0.69,0.17 1.39,-0.2 1.6,-0.88 0.19,-0.67 -0.19,-1.39 -0.87,-1.59 -0.31,-0.09 -5.27,-1.48 -17.89,-1.48"
         style="fill:#06005a;fill-opacity:1;fill-rule:nonzero;stroke:none"
         id="path106" /><path
         d="m 5640.09,3297.65 c -0.3,0 -0.6,0.1 -0.84,0.31 -0.18,0.15 -17.58,15.2 -38.52,34.24 -0.52,0.48 -0.56,1.29 -0.09,1.81 0.5,0.53 1.31,0.55 1.82,0.08 20.91,-19.01 38.29,-34.04 38.47,-34.19 0.53,-0.46 0.59,-1.27 0.13,-1.81 -0.25,-0.29 -0.61,-0.44 -0.97,-0.44"
         style="fill:#06005a;fill-opacity:1;fill-rule:nonzero;stroke:none"
         id="path108" /><path
         d="m 5747.02,3153.5 c -0.61,0 -1.15,0.44 -1.26,1.07 -0.08,0.45 -8.39,46.28 -34.83,80.27 -0.43,0.56 -0.33,1.36 0.22,1.8 0.57,0.43 1.38,0.34 1.8,-0.23 26.84,-34.49 35.26,-80.94 35.33,-81.4 0.13,-0.7 -0.34,-1.36 -1.04,-1.49 -0.07,-0.01 -0.15,-0.02 -0.22,-0.02"
         style="fill:#06005a;fill-opacity:1;fill-rule:nonzero;stroke:none"
         id="path110" /><path
         d="m 5630.46,3110.62 c -0.39,0 -0.79,0.18 -1.04,0.54 -0.26,0.36 -25.91,36.68 -29.11,85.17 -0.04,0.7 0.49,1.31 1.2,1.36 h 0.08 c 0.67,0 1.24,-0.52 1.29,-1.2 3.15,-47.76 28.38,-83.49 28.63,-83.84 0.41,-0.58 0.28,-1.38 -0.29,-1.79 -0.24,-0.16 -0.49,-0.24 -0.76,-0.24"
         style="fill:#06005a;fill-opacity:1;fill-rule:nonzero;stroke:none"
         id="path112" /><path
         d="m 5721.57,3097.69 c -0.04,0 -0.08,0 -0.12,0 -0.7,0.07 -1.22,0.69 -1.16,1.39 0.02,0.22 1.75,21.23 -9.53,48.8 -0.27,0.66 0.04,1.41 0.7,1.68 0.62,0.27 1.41,-0.05 1.67,-0.7 11.54,-28.2 9.79,-49.13 9.71,-50.01 -0.06,-0.66 -0.61,-1.16 -1.27,-1.16"
         style="fill:#06005a;fill-opacity:1;fill-rule:nonzero;stroke:none"
         id="path114" /><path
         d="m 5674.09,2982.2 c -0.14,0 -0.29,0.03 -0.43,0.08 -11.63,4.1 -14.65,35.35 -6.58,68.23 0.17,0.69 0.87,1.1 1.54,0.95 0.69,-0.17 1.11,-0.87 0.94,-1.56 -7.48,-30.57 -5.12,-61.65 4.96,-65.21 0.67,-0.23 1.02,-0.96 0.79,-1.63 -0.19,-0.53 -0.69,-0.86 -1.22,-0.86"
         style="fill:#06005a;fill-opacity:1;fill-rule:nonzero;stroke:none"
         id="path116" /><path
         d="m 5772.06,3051.5 c -0.08,0 -0.18,0 -0.29,0.03 -0.69,0.15 -1.12,0.84 -0.96,1.53 5.15,22.35 -4.07,38.69 -4.16,38.85 -0.35,0.62 -0.14,1.4 0.47,1.76 0.6,0.35 1.38,0.14 1.75,-0.48 0.4,-0.7 9.82,-17.38 4.45,-40.7 -0.15,-0.6 -0.68,-0.99 -1.26,-0.99"
         style="fill:#06005a;fill-opacity:1;fill-rule:nonzero;stroke:none"
         id="path118" /><path
         d="m 5516.58,3287.01 c 0,-6.59 -2.41,-11.93 -5.39,-11.93 -2.98,0 -5.4,5.34 -5.4,11.93 0,6.58 2.42,11.92 5.4,11.92 2.98,0 5.39,-5.34 5.39,-11.92"
         style="fill:#06005a;fill-opacity:1;fill-rule:nonzero;stroke:none"
         id="path120" /><path
         d="m 5442.48,3289.78 c 0,-6.59 -2.42,-11.93 -5.4,-11.93 -2.98,0 -5.4,5.34 -5.4,11.93 0,6.58 2.42,11.92 5.4,11.92 2.98,0 5.4,-5.34 5.4,-11.92"
         style="fill:#06005a;fill-opacity:1;fill-rule:nonzero;stroke:none"
         id="path122" /><path
         d="m 2567.59,1677.97 20.54,-50.04 192.47,38.5 -83.4,47.47 -129.61,-35.93"
         style="fill:#06005a;fill-opacity:1;fill-rule:nonzero;stroke:none"
         id="path124" /><path
         d="m 2273.75,1672.42 -15.4,-54.75 h 244.24 l -83.84,54.75 h -145"
         style="fill:#06005a;fill-opacity:1;fill-rule:nonzero;stroke:none"
         id="path126" /><path
         d="m 2198.9,3247.28 c 19.02,6.08 43.63,39.35 41.92,71 -1.72,31.65 -9.41,68.44 -41.92,67.58 -32.51,-0.86 -39.35,1.71 -62.44,22.24 -23.11,20.53 -69.3,27.37 -152.27,-54.75 -32.66,-32.32 -88.12,-43.62 -128.32,-98.37 -40.21,-54.75 -41.06,-80.41 -39.35,-119.76 1.71,-39.35 0.85,-70.15 -14.54,-91.54 -15.4,-21.38 -39.36,-73.56 -20.53,-108.64 18.82,-35.07 53.89,-73.57 112.92,-61.59 59.02,11.98 132.59,49.62 183.06,42.77 50.47,-6.84 73.57,49.62 64.16,88.97 -9.41,39.35 -13.69,134.3 1.7,185.63 15.41,51.33 50.07,54.69 55.61,56.46"
         style="fill:#ff6476;fill-opacity:1;fill-rule:nonzero;stroke:none"
         id="path128" /><path
         d="m 2168.96,2757.11 c -28.23,-19.67 -47.06,-46.56 -62.45,-119.76 -7.9,-37.6 -7.68,-83.73 -5.6,-119.72 13.45,-20.54 43.42,-48.12 47.52,-48.8 23.76,-3.96 140.29,0 140.29,0 -22.24,23.1 -107.43,225.17 -119.76,288.28"
         style="fill:#f9a5a5;fill-opacity:1;fill-rule:nonzero;stroke:none"
         id="path130" /><path
         d="m 2610.56,2256.57 c -5.1,-42.34 -15.76,-86.05 -25,-121.79 -9.41,-36.35 -49.42,-147.5 -87.9,-251.71 0,0 66.09,-206.38 69.93,-205.1 3.86,1.29 74.43,-16.67 129.61,35.93 l -86.64,542.67"
         style="fill:#4f4fed;fill-opacity:1;fill-rule:nonzero;stroke:none"
         id="path132" /><path
         d="m 2598.39,2377.3 c -32.08,59.02 -90.68,88.01 -200.17,89.77 -109.48,1.76 -292.76,0 -292.81,0 0.65,-5.41 1.1,-8.51 1.1,-8.51 0,0 -152.26,-30.79 -272.88,-25.66 -71.59,3.05 -116.49,11.5 -141.3,17.88 -8.75,-38.84 -2.41,-135.07 60.46,-185.12 62.87,-50.04 174.51,-57.74 263.05,-53.89 88.53,3.85 349.02,41.06 361.85,42.34 12.83,1.29 24.38,-10.26 15.39,-52.6 -7.91,-37.33 -119.33,-529.09 -119.33,-529.09 h 145 c 0,0 38.61,101.52 78.91,210.65 38.48,104.21 78.49,215.36 87.9,251.71 9.24,35.74 19.9,79.45 25,121.79 5.52,45.83 4.51,90.04 -12.17,120.73"
         style="fill:#756bff;fill-opacity:1;fill-rule:nonzero;stroke:none"
         id="path134" /><path
         d="m 2196.33,2835.81 c -4.27,30.8 -45.33,125.75 -71.85,163.39 -13.96,19.82 -27.66,35.61 -44.09,45.4 -0.13,-0.28 -0.28,-0.67 -0.39,-0.92 -4.28,-8.55 -12.84,-23.09 -24.81,-21.38 -11.98,1.71 -23.96,9.41 -25.67,17.11 -0.45,2.03 -0.96,7.74 -1.38,15.48 -0.33,-0.04 -0.63,-0.04 -0.96,-0.09 -39.29,-4.68 -98.6,-4.48 -144.79,-51.32 -40.62,-41.18 -126.61,-198.46 -165.1,-321.65 -38.5,-123.18 -49.62,-223.27 -49.62,-223.27 0,0 7.66,-3.41 24.66,-7.78 24.81,-6.38 69.71,-14.83 141.3,-17.88 120.62,-5.13 272.88,25.66 272.88,25.66 0,0 -0.45,3.1 -1.1,8.51 -1.23,10.09 -3.22,28.38 -4.5,50.56 -2.08,35.99 -2.3,82.12 5.6,119.72 15.39,73.2 34.22,100.09 62.45,119.76 28.23,19.68 31.65,47.91 27.37,78.7"
         style="fill:#06005f;fill-opacity:1;fill-rule:nonzero;stroke:none"
         id="path136" /><path
         d="m 2056.9,3094.1 c -12,7.13 -21.27,19.35 -28.38,32.44 -1.98,-21.49 -1.42,-52.76 -0.38,-71.65 0.42,-7.74 0.93,-13.45 1.38,-15.48 1.71,-7.7 13.69,-15.4 25.67,-17.11 11.97,-1.71 20.53,12.83 24.81,21.38 0.11,0.25 0.26,0.64 0.39,0.92 3.09,6.81 8.64,25.73 11.8,36.87 -11.91,1.37 -23.65,5.72 -35.29,12.63"
         style="fill:#f9a5a5;fill-opacity:1;fill-rule:nonzero;stroke:none"
         id="path138" /><path
         d="m 2198.04,3272.94 c -13.68,25.67 -35.07,17.11 -54.75,21.39 -19.67,4.28 -33.35,28.23 -67.57,16.25 -34.22,-11.97 -63.31,-80.41 -63.31,-80.41 -1.71,20.53 -23.95,30.8 -34.21,7.7 -10.27,-23.1 13.68,-64.16 30.79,-55.6 0,0 5.37,-29.63 19.53,-55.73 7.11,-13.09 16.38,-25.31 28.38,-32.44 11.64,-6.91 23.38,-11.26 35.29,-12.63 24.84,-2.85 50.45,7.45 77.63,35.78 40.2,41.92 41.91,130.03 28.22,155.69"
         style="fill:#fdb5b9;fill-opacity:1;fill-rule:nonzero;stroke:none"
         id="path140" /><path
         d="m 1922.59,2767.38 c 20.54,-52.18 67.58,-151.41 112.92,-189.05 45.34,-37.65 104.36,-39.36 184.78,-35.93 80.41,3.42 227.54,28.22 256.63,47.04 29.08,18.83 -59.03,7.7 -59.03,7.7 0,0 79.56,24.81 73.57,35.93 -5.99,11.12 -76.14,-4.27 -76.14,-4.27 0,0 88.12,21.36 87.26,39.76 -0.85,18.41 -88.11,-4.69 -88.11,-4.69 0,0 71.86,18.82 71,31.65 -0.85,12.83 -89.82,-7.7 -89.82,-7.7 0,0 48.76,19.68 40.21,29.09 -8.56,9.41 -78.7,-31.65 -78.7,-31.65 0,0 -93.24,-13.69 -148.85,0 -55.6,13.68 -84.69,43.62 -103.51,87.25 -18.82,43.63 -29.08,66.72 -29.08,66.72 0,0 -26.52,1.72 -79.56,-21.38 -53.03,-23.1 -73.57,-50.47 -73.57,-50.47"
         style="fill:#fdb5b9;fill-opacity:1;fill-rule:nonzero;stroke:none"
         id="path142" /><path
         d="m 2003.01,3204.08 c -0.61,0 -1.15,0.42 -1.26,1.04 -0.02,0.09 -1.78,8.88 -9.21,19.61 -0.4,0.59 -0.26,1.39 0.33,1.79 0.59,0.4 1.38,0.26 1.78,-0.32 7.77,-11.22 9.54,-20.22 9.61,-20.6 0.14,-0.7 -0.31,-1.37 -1.02,-1.5 -0.08,-0.01 -0.15,-0.02 -0.23,-0.02"
         style="fill:#06005a;fill-opacity:1;fill-rule:nonzero;stroke:none"
         id="path144" /><path
         d="m 2127.47,3238.72 c -0.36,0 -0.7,0.15 -0.95,0.43 -6.17,6.93 -28.95,12.92 -44.35,6.93 -0.66,-0.24 -1.41,0.08 -1.67,0.73 -0.25,0.67 0.08,1.41 0.74,1.67 15.49,6 39.71,0.8 47.19,-7.62 0.47,-0.53 0.42,-1.34 -0.1,-1.81 -0.25,-0.22 -0.55,-0.33 -0.86,-0.33"
         style="fill:#06005a;fill-opacity:1;fill-rule:nonzero;stroke:none"
         id="path146" /><path
         d="m 2160.41,3143.77 c -0.37,0 -0.73,0.15 -0.97,0.44 l -14.55,16.68 c -0.46,0.53 -0.41,1.34 0.13,1.81 0.52,0.46 1.34,0.41 1.81,-0.12 l 12.65,-14.51 c 2.25,18.29 9.85,78.76 12.71,82.84 3.07,4.38 17.25,11.25 34.13,2.14 0.62,-0.34 0.85,-1.11 0.52,-1.74 -0.35,-0.62 -1.1,-0.86 -1.74,-0.52 -15.22,8.21 -28.21,2.36 -30.81,-1.36 -2.09,-3.19 -8.84,-53.54 -12.61,-84.53 -0.06,-0.5 -0.41,-0.92 -0.9,-1.07 -0.12,-0.04 -0.25,-0.06 -0.37,-0.06"
         style="fill:#06005a;fill-opacity:1;fill-rule:nonzero;stroke:none"
         id="path148" /><path
         d="m 2139.88,3112.12 c -0.36,0 -0.72,0.15 -0.97,0.45 -0.04,0.04 -5.42,5.58 -29.02,6.39 -0.71,0.03 -1.27,0.62 -1.24,1.33 0.03,0.7 0.63,1.28 1.33,1.24 25.09,-0.87 30.65,-7.03 30.87,-7.29 0.46,-0.54 0.4,-1.35 -0.14,-1.81 -0.24,-0.21 -0.54,-0.31 -0.83,-0.31"
         style="fill:#06005a;fill-opacity:1;fill-rule:nonzero;stroke:none"
         id="path150" /><path
         d="m 1924.52,2761.26 c -0.5,0 -0.97,0.29 -1.18,0.78 -14.23,33.02 -50.09,157.16 -29.29,204.11 0.28,0.64 1.05,0.93 1.69,0.65 0.65,-0.29 0.94,-1.05 0.65,-1.69 -19.02,-42.95 12.31,-162.61 29.31,-202.06 0.28,-0.65 -0.02,-1.4 -0.67,-1.68 -0.17,-0.07 -0.34,-0.11 -0.51,-0.11"
         style="fill:#ffffff;fill-opacity:1;fill-rule:nonzero;stroke:none"
         id="path152" /><path
         d="m 2077.89,2833.03 c -0.49,0 -0.96,0.28 -1.17,0.76 -1.95,4.44 -5.37,14.03 -9.7,26.16 -12.52,35.12 -33.49,93.93 -49.62,113.85 -0.44,0.55 -0.35,1.36 0.2,1.8 0.54,0.45 1.34,0.38 1.8,-0.18 16.4,-20.26 37.46,-79.33 50.04,-114.61 4.31,-12.09 7.72,-21.63 9.63,-25.99 0.28,-0.65 -0.01,-1.4 -0.66,-1.69 -0.17,-0.07 -0.35,-0.1 -0.52,-0.1"
         style="fill:#ffffff;fill-opacity:1;fill-rule:nonzero;stroke:none"
         id="path154" /><path
         d="m 2304.55,1633.07 c -0.14,0 -0.27,0.02 -0.41,0.06 -0.67,0.23 -1.04,0.95 -0.81,1.62 1.19,3.59 119.64,359.36 147.53,482.35 l 6.95,30.52 c 24.05,105.56 43.05,188.95 31.16,197.86 -7.62,5.71 -137.15,3.42 -251.42,1.4 -85.5,-1.52 -173.9,-3.07 -219.19,-1.66 -107.75,3.39 -162.86,61.77 -190.13,110.15 -0.34,0.62 -0.13,1.4 0.49,1.75 0.61,0.36 1.4,0.15 1.75,-0.49 26.94,-47.81 81.42,-105.5 187.97,-108.85 45.2,-1.42 133.59,0.14 219.06,1.67 147.81,2.59 245.26,3.92 253.02,-1.93 13.21,-9.9 -4.06,-85.72 -30.21,-200.47 l -6.95,-30.51 c -27.92,-123.11 -146.4,-479.01 -147.6,-482.59 -0.17,-0.54 -0.68,-0.88 -1.21,-0.88"
         style="fill:#06005a;fill-opacity:1;fill-rule:nonzero;stroke:none"
         id="path156" /><path
         d="m 1974.71,2350.01 c -0.68,0 -1.25,0.53 -1.28,1.21 -0.04,0.67 -4.21,67.24 -41.67,115.06 -0.44,0.56 -0.34,1.36 0.22,1.8 0.55,0.43 1.35,0.34 1.8,-0.22 37.96,-48.47 42.17,-115.82 42.21,-116.5 0.04,-0.7 -0.5,-1.31 -1.21,-1.35 h -0.07"
         style="fill:#06005a;fill-opacity:1;fill-rule:nonzero;stroke:none"
         id="path158" /><path
         d="m 2120.21,3209.63 c -1.76,-5.96 -5.31,-10.15 -7.94,-9.37 -2.64,0.78 -3.35,6.23 -1.6,12.18 1.76,5.95 5.31,10.14 7.95,9.36 2.63,-0.78 3.35,-6.23 1.59,-12.17"
         style="fill:#06005f;fill-opacity:1;fill-rule:nonzero;stroke:none"
         id="path160" /><path
         d="m 2193.67,3198.76 c -1.76,-5.94 -5.31,-10.14 -7.94,-9.36 -2.64,0.78 -3.35,6.23 -1.6,12.18 1.76,5.94 5.32,10.13 7.95,9.36 2.63,-0.78 3.34,-6.23 1.59,-12.18"
         style="fill:#06005f;fill-opacity:1;fill-rule:nonzero;stroke:none"
         id="path162" /><path
         d="m 1887.72,3167.3 c -0.45,0 -0.87,0.23 -1.11,0.63 -0.36,0.62 -0.15,1.4 0.46,1.76 0.69,0.4 16.87,10.28 10.32,41.08 -7.39,34.73 8.58,54.77 77.66,97.48 0.61,0.37 1.39,0.19 1.77,-0.41 0.37,-0.61 0.19,-1.4 -0.42,-1.77 -72.52,-44.84 -83.09,-63.81 -76.5,-94.77 6.95,-32.72 -10.79,-43.39 -11.54,-43.83 -0.2,-0.12 -0.42,-0.17 -0.64,-0.17"
         style="fill:#06005a;fill-opacity:1;fill-rule:nonzero;stroke:none"
         id="path164" /><path
         d="m 2124.9,3338.39 c -0.5,0 -0.98,0.3 -1.18,0.79 -0.05,0.11 -4.95,11.61 -17.42,15.78 -10.66,3.56 -23.59,0.92 -38.49,-7.84 -0.62,-0.36 -1.4,-0.16 -1.75,0.45 -0.36,0.61 -0.16,1.4 0.45,1.76 15.57,9.16 29.24,11.88 40.64,8.05 13.58,-4.56 18.73,-16.71 18.94,-17.22 0.27,-0.66 -0.04,-1.41 -0.69,-1.68 -0.17,-0.07 -0.33,-0.09 -0.5,-0.09"
         style="fill:#06005a;fill-opacity:1;fill-rule:nonzero;stroke:none"
         id="path166" /><path
         d="m 2202.32,3295.61 c -0.4,0 -0.79,0.19 -1.04,0.54 -0.41,0.58 -0.28,1.38 0.29,1.79 17.54,12.53 9.17,41.55 4.3,50.14 -0.34,0.62 -0.13,1.4 0.49,1.75 0.6,0.35 1.39,0.13 1.75,-0.48 5.36,-9.49 14.14,-39.8 -5.04,-53.5 -0.23,-0.16 -0.49,-0.24 -0.75,-0.24"
         style="fill:#06005a;fill-opacity:1;fill-rule:nonzero;stroke:none"
         id="path168" /><path
         d="m 1887.72,3059.51 c -0.24,0 -0.47,0.06 -0.67,0.19 -0.61,0.37 -0.8,1.15 -0.43,1.76 0.46,0.74 11.3,18.36 30.15,30.36 4.04,2.56 8,4.67 11.83,6.7 14.42,7.65 26.87,14.26 38.15,41.47 0.27,0.66 1.01,0.98 1.68,0.69 0.65,-0.27 0.96,-1.02 0.68,-1.68 -11.63,-28.05 -25.08,-35.19 -39.31,-42.75 -3.78,-2.01 -7.7,-4.08 -11.65,-6.6 -18.34,-11.67 -29.23,-29.35 -29.34,-29.52 -0.24,-0.4 -0.66,-0.62 -1.09,-0.62"
         style="fill:#06005a;fill-opacity:1;fill-rule:nonzero;stroke:none"
         id="path170" /><path
         d="m 1807.11,2959.43 c -0.61,0 -1.15,0.43 -1.27,1.06 -5.54,31.45 11.26,52.72 21.78,62.61 0.51,0.48 1.32,0.46 1.81,-0.06 0.48,-0.52 0.46,-1.33 -0.05,-1.82 -10.14,-9.53 -26.35,-30.03 -21.01,-60.29 0.12,-0.7 -0.34,-1.36 -1.04,-1.48 -0.08,-0.02 -0.15,-0.02 -0.22,-0.02"
         style="fill:#06005a;fill-opacity:1;fill-rule:nonzero;stroke:none"
         id="path172" /><path
         d="m 1998.3,3066.35 c -0.18,0 -0.37,0.04 -0.54,0.12 -0.64,0.3 -0.93,1.07 -0.63,1.71 0.07,0.14 6.37,13.91 9.31,44.06 0.07,0.71 0.62,1.22 1.41,1.16 0.7,-0.07 1.22,-0.7 1.15,-1.4 -3,-30.66 -9.27,-44.34 -9.54,-44.91 -0.22,-0.46 -0.68,-0.74 -1.16,-0.74"
         style="fill:#06005a;fill-opacity:1;fill-rule:nonzero;stroke:none"
         id="path174" /><path
         d="m 2128.75,3027 c -0.35,0 -0.7,0.15 -0.95,0.44 -0.14,0.15 -13.95,15.82 -24.39,39.68 -0.28,0.65 0.01,1.41 0.66,1.69 0.65,0.28 1.4,-0.01 1.69,-0.66 10.27,-23.47 23.82,-38.86 23.95,-39.01 0.47,-0.53 0.43,-1.34 -0.1,-1.81 -0.25,-0.22 -0.55,-0.33 -0.86,-0.33"
         style="fill:#06005a;fill-opacity:1;fill-rule:nonzero;stroke:none"
         id="path176" /><path
         d="m 2004.29,3258.83 c -0.37,0 -0.74,0.16 -0.99,0.47 -0.45,0.54 -0.37,1.36 0.18,1.8 0.11,0.1 11.55,9.72 26.6,41.48 0.29,0.64 1.07,0.92 1.7,0.61 0.64,-0.3 0.92,-1.07 0.61,-1.71 -15.34,-32.4 -26.81,-41.97 -27.29,-42.36 -0.24,-0.2 -0.52,-0.29 -0.81,-0.29"
         style="fill:#06005a;fill-opacity:1;fill-rule:nonzero;stroke:none"
         id="path178" /><path
         d="m 6074.72,4375.51 c -15.67,16.96 -42.61,18.47 -60.21,3.41 l -186.87,-159.89 c -60.53,32.4 -218.63,109.32 -477.05,182.7 -304.05,86.34 -811.05,183.63 -1500.34,156.9 -5.07,-0.19 -23.47,-0.19 -28.54,0 -689.22,26.75 -1196.3,-70.56 -1500.34,-156.9 -258.43,-73.38 -416.53,-150.3 -477.06,-182.7 l -186.87,159.89 c -17.6,15.06 -44.56,13.54 -60.21,-3.41 -15.64,-16.96 -14.05,-42.91 3.55,-57.97 l 209.96,-179.65 c 8.01,-6.85 18.14,-10.35 28.33,-10.35 7.86,0 15.75,2.08 22.74,6.31 6.5,3.94 664.62,392.74 1956.46,342.73 6.25,-0.25 29.15,-0.24 35.42,0 1291.86,50.05 1949.96,-338.79 1956.42,-342.7 7,-4.26 14.9,-6.35 22.77,-6.35 10.19,0 20.33,3.51 28.34,10.37 l 209.95,179.64 c 17.61,15.06 19.19,41.01 3.55,57.97"
         style="fill:#ffbc36;fill-opacity:1;fill-rule:nonzero;stroke:none"
         id="path180" /><path
         d="m 3315.77,3012.08 c 5.26,20.14 37.97,41.87 76.47,37.59 38.49,-4.27 51.32,13.69 71.85,24.81 20.53,11.12 51.37,17.11 57.34,-5.99 5.97,-23.09 2.66,-22.24 24.84,-36.78 22.19,-14.54 23.18,-44.02 27.43,-103.51 4.24,-59.49 -5.57,-236.54 -5.57,-236.54 0,0 -75.56,15.74 -137.4,15.84 -61.84,0.1 -127.89,-15.84 -127.89,-15.84 0,0 -25.89,171.62 12.93,320.42"
         style="fill:#766dfc;fill-opacity:1;fill-rule:nonzero;stroke:none"
         id="path182" /><path
         d="m 2892.66,1519.29 c 12.83,-2.56 13.69,57.32 13.69,57.32 0,0 3.42,-76.99 16.25,-76.99 11.44,0 13.36,43.71 13.64,53.25 0.03,0.65 0.01,1.26 0.05,1.92 0,0 -0.02,-0.75 -0.05,-1.92 -1.9,-45.5 18.11,-74.6 24.86,-72.07 6.84,2.57 0,76.26 0,76.26 0,0 9.41,-62.57 16.25,-69.42 6.84,-6.84 14.57,2.71 17.11,15.4 3.42,17.11 -2.57,77.84 6.84,70.14 9.41,-7.69 39.35,-23.95 42.77,-18.81 3.05,4.57 -13.57,41.03 -22.69,65.88 -35.6,6.93 -85.22,27.03 -129.32,50.32 -28.18,-81.29 -12.13,-148.73 0.6,-151.28"
         style="fill:#fdb5b9;fill-opacity:1;fill-rule:nonzero;stroke:none"
         id="path184" /><path
         d="m 2936.24,1552.87 c 0.03,1.17 0.05,1.92 0.05,1.92 -0.04,-0.66 -0.02,-1.27 -0.05,-1.92"
         style="fill:#d1cfff;fill-opacity:1;fill-rule:nonzero;stroke:none"
         id="path186" /><path
         d="m 4293.87,1834.1 c -4.28,13.68 -72.71,0 -72.71,0 0,0 60.73,11.97 56.46,19.67 -4.28,7.7 -87.25,-4.28 -89.82,0 -2.57,4.28 40.2,45.34 29.08,50.47 -11.12,5.13 -59.02,-32.51 -60.73,-29.94 -1.72,2.57 -31.66,6.84 -52.19,24.81 -10.9,-37.72 -18.88,-82.81 -23.99,-116.89 14.12,-6.18 48.46,-19.53 83.88,-20.84 46.19,-1.71 93.24,-6.84 92.38,5.99 -0.85,12.83 -42.77,13.69 -42.77,13.69 0,0 70.15,0.85 67.58,14.54 -2.57,13.68 -46.19,8.56 -48.76,10.27 -2.57,1.7 65.87,14.54 61.59,28.23"
         style="fill:#fdb5b9;fill-opacity:1;fill-rule:nonzero;stroke:none"
         id="path188" /><path
         d="m 3103.19,807.609 34.98,-131.73 96.67,-12.879 23.96,128.512 c -62.42,5.308 -117.08,11.41 -155.61,16.097"
         style="fill:#4c3be3;fill-opacity:1;fill-rule:nonzero;stroke:none"
         id="path190" /><path
         d="m 3138.17,675.879 c -18.82,-11.168 -86.4,-66.77 -86.4,-66.77 h 177.08 l 5.99,53.891 -96.67,12.879"
         style="fill:#06005f;fill-opacity:1;fill-rule:nonzero;stroke:none"
         id="path192" /><path
         d="m 3692.95,791.539 c -40.16,-6.469 -86.11,-9.957 -134.64,-11.277 l 42.66,-116.41 76.98,8.558 15,119.129"
         style="fill:#4c3be3;fill-opacity:1;fill-rule:nonzero;stroke:none"
         id="path194" /><path
         d="m 3677.95,672.41 -76.98,-8.558 17.1,-54.743 h 180.5 l -120.62,63.301"
         style="fill:#06005f;fill-opacity:1;fill-rule:nonzero;stroke:none"
         id="path196" /><path
         d="m 3873.18,2293.46 c -77.17,203.6 -106.26,270.33 -205.49,342.18 -99.23,71.86 -167.67,73.57 -167.67,73.57 h -118.05 c 0,0 -179.64,-18.02 -282.29,-97.12 -102.66,-79.1 -183.1,-346 -223.29,-499.98 -40.19,-153.98 -61.47,-391.79 -61.47,-391.79 18.66,-15.94 46.59,-33.6 77.14,-49.75 44.1,-23.29 93.72,-43.39 129.32,-50.32 8.6,-1.67 16.38,-2.58 23.06,-2.58 0,0 48.39,343.88 65.51,412.32 17.1,68.44 37.63,111.21 37.63,111.21 0,0 -46.19,-449.96 -66.72,-687.77 -20.54,-237.82 -52.3,-513.27 -36.42,-638.168 0,0 22.06,-3.18 58.75,-7.653 38.53,-4.687 93.19,-10.789 155.61,-16.097 92.14,-7.84 201.07,-13.961 299.51,-11.25 48.53,1.32 94.48,4.808 134.64,11.277 17.25,2.781 33.46,6.09 48.31,10.043 0,0 17.11,506.418 0,737.388 -17.11,230.97 -49.62,556.03 -49.62,556.03 0,0 46.57,-159.52 181.54,-255.13 134.97,-95.6 199.99,-109.28 199.99,-109.28 0,0 2.28,21.55 6.8,51.63 5.11,34.08 13.09,79.17 23.99,116.89 0,0 -153.61,190.76 -230.78,394.35"
         style="fill:#06005f;fill-opacity:1;fill-rule:nonzero;stroke:none"
         id="path198" /><path
         d="m 3513.75,2492.78 c -21.87,-3.18 -23.82,15.09 -29.77,19.92 -0.31,0.2 -0.72,0.41 -1.03,0.61 -0.62,0.31 -1.23,0.41 -1.75,0.21 -5.95,-0.82 -10.57,-19.92 -21.76,-20.63 -12.21,-0.83 -10.78,15.91 -16.21,17.75 -0.83,0.31 -1.86,0.1 -2.68,-0.51 -4.72,-3.39 -9.65,-18.07 -18.37,-17.24 -10.27,0.92 -11.09,15.29 -21.66,21.24 -0.41,0.31 -0.82,0.52 -1.23,0.62 -0.93,0.41 -1.75,0.72 -2.47,0.72 -6.88,0.92 -7.39,-11.09 -15.09,-19.3 -8.72,-9.34 -16.83,1.74 -18.58,25.66 -0.1,1.13 -0.1,2.57 -0.1,4.11 0,30.18 15.5,128.72 36.85,152.95 0.21,0.31 0.41,0.52 0.62,0.72 10.47,-6.26 26.38,-10.78 49.07,-11.09 10.57,-0.1 18.27,1.34 24.12,3.39 0.92,0.31 1.75,0.72 2.56,1.13 3.09,1.33 5.45,2.98 7.4,4.52 0.1,-0.21 0.1,-0.41 0.2,-0.62 19.82,-51.94 52.56,-180.77 29.88,-184.16"
         style="fill:#ffffff;fill-opacity:1;fill-rule:nonzero;stroke:none"
         id="path200" /><path
         d="m 3510.46,2755.35 c -1.99,-3.22 -4.07,-6.18 -6.16,-8.5 -23.1,-25.66 -82.98,-37.64 -125.75,8.5 -0.97,1.05 -1.83,2.17 -2.77,3.25 0.26,-18.6 6.19,-60.51 14.75,-70.78 2.44,-2.93 5.82,-5.68 9.99,-8.19 10.46,-6.27 26.42,-10.77 49.03,-11.07 18.44,-0.24 28.33,4.31 34.16,8.99 4.18,3.36 6.33,6.78 7.76,8.56 3.42,4.28 18.99,69.24 18.99,69.24"
         style="fill:#ffffff;fill-opacity:1;fill-rule:nonzero;stroke:none"
         id="path202" /><path
         d="m 3442.71,2997.49 c -50.49,-3.15 -85.54,-22.24 -100.09,-72.71 -14.21,-49.33 -7.09,-119.92 33.16,-166.18 0.94,-1.08 1.8,-2.2 2.77,-3.25 42.77,-46.14 102.65,-34.16 125.75,-8.5 2.09,2.32 4.11,5.28 6.09,8.5 19.96,32.47 34.27,107.04 35.83,150.61 1.71,47.9 -35.07,95.81 -103.51,91.53"
         style="fill:#fdb5b9;fill-opacity:1;fill-rule:nonzero;stroke:none"
         id="path204" /><path
         d="m 3255.84,2646.13 c 0,30 24.32,54.32 54.33,54.32 30,0 54.32,-24.32 54.32,-54.32 0,-30 -24.32,-54.32 -54.32,-54.32 -30.01,0 -54.33,24.32 -54.33,54.32"
         style="fill:#b6b2ff;fill-opacity:1;fill-rule:nonzero;stroke:none"
         id="path206" /><path
         d="m 3345.6,2739.56 c 0,-17.66 -10.16,-32.85 -24.94,-40.14 -5.96,-3.08 -12.84,-4.72 -19.92,-4.72 -4,0 -7.8,0.51 -11.39,1.54 -19.3,4.93 -33.47,22.48 -33.47,43.32 0,24.74 20.02,44.86 44.86,44.86 19.71,0 36.55,-12.83 42.5,-30.59 0.61,-1.54 1.03,-3.18 1.33,-4.93 0.72,-2.98 1.03,-6.16 1.03,-9.34"
         style="fill:#b6b2ff;fill-opacity:1;fill-rule:nonzero;stroke:none"
         id="path208" /><path
         d="m 3342.72,2826.4 c 0,-16.22 -9.23,-30.28 -22.68,-37.16 -0.92,-0.61 -1.95,-1.13 -2.98,-1.53 -5.03,-2.06 -10.57,-3.29 -16.32,-3.29 -23.2,0 -42.09,18.79 -42.09,41.98 0,20.12 14.17,36.96 33.06,41.17 2.97,0.61 5.95,0.92 9.03,0.92 8.11,0 15.6,-2.26 21.97,-6.26 12.01,-7.39 20.01,-20.73 20.01,-35.83"
         style="fill:#b6b2ff;fill-opacity:1;fill-rule:nonzero;stroke:none"
         id="path210" /><path
         d="m 3351.96,2899.59 c 0,-1.12 0,-2.25 -0.2,-3.38 -0.1,-1.75 -0.41,-3.49 -0.82,-5.13 -3.08,-14.17 -14.17,-25.36 -28.23,-28.85 -2.98,-0.82 -6.16,-1.23 -9.34,-1.23 -8.01,0 -15.4,2.46 -21.66,6.57 -10.27,6.98 -17.04,18.68 -17.04,32.02 0,21.25 17.34,38.6 38.7,38.6 1.23,0 2.46,-0.1 3.59,-0.2 5.54,-0.52 10.68,-2.16 15.29,-4.72 11.71,-6.68 19.71,-19.3 19.71,-33.68"
         style="fill:#b6b2ff;fill-opacity:1;fill-rule:nonzero;stroke:none"
         id="path212" /><path
         d="m 3374.45,2971.66 c 0,-19.1 -13.76,-34.9 -31.93,-37.98 -1.13,-0.21 -2.36,-0.41 -3.59,-0.41 -1.03,-0.21 -2.05,-0.21 -3.08,-0.21 -1.24,0 -2.46,0.1 -3.6,0.21 -5.54,0.51 -10.67,2.15 -15.29,4.72 -11.71,6.57 -19.71,19.19 -19.71,33.67 0,21.35 17.35,38.59 38.6,38.59 21.35,0 38.6,-17.24 38.6,-38.59"
         style="fill:#b6b2ff;fill-opacity:1;fill-rule:nonzero;stroke:none"
         id="path214" /><path
         d="m 3620.61,2646.14 c 0,-29.97 -24.33,-54.3 -54.31,-54.3 -17.55,0 -33.05,8.32 -43.01,21.25 -1.74,2.15 -3.28,4.52 -4.62,6.98 -4.31,7.7 -6.67,16.63 -6.67,26.07 0,26.18 18.58,48.15 43.32,53.18 3.59,0.72 7.18,1.13 10.98,1.13 3.8,0 7.39,-0.41 10.99,-1.13 24.74,-5.03 43.32,-27 43.32,-53.18"
         style="fill:#b6b2ff;fill-opacity:1;fill-rule:nonzero;stroke:none"
         id="path216" /><path
         d="m 3611.16,2742.74 c 0,-20.94 -14.47,-38.6 -33.87,-43.42 -3.49,-0.93 -7.19,-1.44 -10.99,-1.44 -3.8,0 -7.49,0.51 -10.98,1.44 -19.4,4.82 -33.88,22.48 -33.88,43.42 0,2.26 0.21,4.62 0.52,6.78 0.3,1.84 0.72,3.69 1.23,5.44 0,0 0.1,0 0.1,0.1 5.24,18.79 22.58,32.54 43.01,32.54 24.74,0 44.86,-20.12 44.86,-44.86"
         style="fill:#b6b2ff;fill-opacity:1;fill-rule:nonzero;stroke:none"
         id="path218" /><path
         d="m 3610.13,2829.69 c 0,-23.3 -18.78,-42.09 -41.98,-42.09 -7.8,0 -15.09,2.15 -21.35,5.85 -1.34,0.72 -2.57,1.54 -3.69,2.47 -10.37,7.59 -17.05,19.91 -17.05,33.77 0,19.3 13.14,35.62 30.9,40.44 3.59,1.03 7.29,1.54 11.19,1.54 3.9,0 7.6,-0.51 11.19,-1.54 17.76,-4.82 30.79,-21.14 30.79,-40.44"
         style="fill:#b6b2ff;fill-opacity:1;fill-rule:nonzero;stroke:none"
         id="path220" /><path
         d="m 3606.75,2907.09 c 0,-17.45 -11.5,-32.13 -27.41,-36.96 -3.49,-1.13 -7.29,-1.64 -11.19,-1.64 -3.9,0 -7.6,0.51 -11.08,1.64 -15.91,4.83 -27.51,19.51 -27.51,36.96 0,1.13 0,2.26 0.2,3.39 0.1,1.33 0.21,2.77 0.61,4.1 1.65,8.93 6.47,16.73 13.25,22.28 6.47,5.44 14.78,8.62 23.71,8.82 0.1,0 0.1,0 0.1,0 h 0.72 c 21.35,0 38.6,-17.24 38.6,-38.59"
         style="fill:#b6b2ff;fill-opacity:1;fill-rule:nonzero;stroke:none"
         id="path222" /><path
         d="m 3581.5,2975.56 c 0,-12.01 -5.45,-22.79 -14.07,-29.88 0,0 0,0 -0.1,0 -6.37,-5.33 -14.58,-8.62 -23.51,-8.82 -0.1,0 -0.1,0 -0.2,0 h -0.72 c -8.01,0 -15.4,2.46 -21.56,6.67 -1.33,0.82 -2.46,1.75 -3.59,2.67 -8.21,7.18 -13.45,17.66 -13.45,29.36 0,21.25 17.25,38.59 38.6,38.59 21.35,0 38.6,-17.34 38.6,-38.59"
         style="fill:#b6b2ff;fill-opacity:1;fill-rule:nonzero;stroke:none"
         id="path224" /><path
         d="m 3367.64,2918.15 c -0.49,0 -0.96,0.28 -1.17,0.76 -0.28,0.65 0,1.41 0.65,1.7 23.31,10.34 36.84,13.44 50.7,3.06 0.56,-0.43 0.68,-1.23 0.25,-1.8 -0.42,-0.57 -1.22,-0.68 -1.8,-0.26 -12.84,9.64 -25.74,6.59 -48.1,-3.35 -0.17,-0.08 -0.35,-0.11 -0.53,-0.11"
         style="fill:#06005a;fill-opacity:1;fill-rule:nonzero;stroke:none"
         id="path226" /><path
         d="m 3511.97,2918.15 c -0.41,0 -0.81,0.2 -1.05,0.56 -5.4,7.81 -33.19,11.63 -45.74,4.29 -0.65,-0.35 -1.42,-0.15 -1.76,0.46 -0.36,0.61 -0.16,1.4 0.45,1.76 14.07,8.22 43.01,3.87 49.15,-5.06 0.41,-0.58 0.26,-1.39 -0.32,-1.79 -0.23,-0.15 -0.48,-0.22 -0.73,-0.22"
         style="fill:#06005a;fill-opacity:1;fill-rule:nonzero;stroke:none"
         id="path228" /><path
         d="m 3464.52,2819.35 c -0.29,0 -0.57,0.09 -0.8,0.28 l -21.43,17.32 c -0.55,0.45 -0.64,1.26 -0.2,1.81 0.45,0.56 1.26,0.63 1.8,0.19 l 19.24,-15.54 c -0.56,14 -2.75,73.7 0.16,84.01 0.19,0.67 0.86,1.1 1.58,0.88 0.69,-0.19 1.08,-0.9 0.89,-1.58 -3.12,-11.05 0.02,-85.29 0.05,-86.04 0.02,-0.5 -0.25,-0.97 -0.71,-1.2 -0.19,-0.09 -0.38,-0.13 -0.58,-0.13"
         style="fill:#06005a;fill-opacity:1;fill-rule:nonzero;stroke:none"
         id="path230" /><path
         d="m 3443.03,2777.8 c -13.9,0 -21.73,5.2 -22.21,5.54 -0.6,0.39 -0.73,1.19 -0.35,1.78 0.41,0.58 1.21,0.71 1.79,0.34 0.16,-0.12 17.17,-11.29 45.63,0.13 0.66,0.26 1.41,-0.06 1.67,-0.72 0.26,-0.65 -0.06,-1.4 -0.71,-1.67 -10.07,-4.04 -18.73,-5.4 -25.82,-5.4"
         style="fill:#06005a;fill-opacity:1;fill-rule:nonzero;stroke:none"
         id="path232" /><path
         d="m 3406.16,2573.47 c -0.1,-0.31 -4.41,-31.42 -6.87,-58.72 -0.93,0.41 -1.75,0.72 -2.47,0.72 2.36,27.2 6.68,58 6.78,58.3 0.1,0.72 0.72,1.24 1.43,1.13 0.72,-0.1 1.24,-0.72 1.13,-1.43"
         style="fill:#06005a;fill-opacity:1;fill-rule:nonzero;stroke:none"
         id="path234" /><path
         d="m 3446.2,2582.6 c 0.2,-25.35 -1.85,-56.25 -2.97,-71.96 -0.83,0.31 -1.86,0.1 -2.68,-0.51 1.24,15.4 3.39,46.71 3.09,72.47 0,0.72 0.61,1.23 1.33,1.23 0.71,0 1.23,-0.51 1.23,-1.23"
         style="fill:#06005a;fill-opacity:1;fill-rule:nonzero;stroke:none"
         id="path236" /><path
         d="m 3483.87,2512.7 c -0.31,0.2 -0.61,0.41 -0.92,0.61 -0.62,0.31 -1.23,0.41 -1.75,0.21 -1.02,10.57 -2.87,25.25 -6.36,41.27 -0.21,0.61 0.31,1.33 0.92,1.43 0.82,0.21 1.44,-0.21 1.54,-0.92 3.7,-16.63 5.55,-31.92 6.57,-42.6"
         style="fill:#06005a;fill-opacity:1;fill-rule:nonzero;stroke:none"
         id="path238" /><path
         d="m 3445.55,2666.46 c -14.1,0 -30.45,3.82 -48.87,14.18 -0.61,0.34 -0.91,1.17 -0.56,1.79 0.35,0.62 1.04,0.87 1.67,0.53 31.88,-17.93 61.44,-18.73 87.55,-2.25 0.59,0.38 1.4,0.21 1.77,-0.4 0.38,-0.6 0.2,-1.39 -0.4,-1.77 -10.18,-6.43 -24.01,-12.08 -41.16,-12.08"
         style="fill:#06005a;fill-opacity:1;fill-rule:nonzero;stroke:none"
         id="path240" /><path
         d="m 3301.51,2603.33 c -10.1,0 -19.91,2.34 -27.54,7.74 -0.58,0.4 -0.72,1.2 -0.31,1.79 0.41,0.57 1.21,0.71 1.79,0.3 17.89,-12.65 48.49,-7.55 64.75,4.97 11.02,8.48 14.75,19.4 10.53,30.75 -5.54,14.84 -15.48,23.68 -28,24.9 -11.58,1.12 -23.55,-4.84 -29.7,-14.86 -4.68,-7.63 -3.41,-15.8 3.39,-21.82 6.61,-5.86 18.01,-8.61 26.16,-2.17 0.55,0.44 1.36,0.34 1.8,-0.21 0.44,-0.55 0.35,-1.35 -0.21,-1.79 -9.24,-7.34 -22.07,-4.3 -29.45,2.24 -6.03,5.35 -10.21,14.75 -3.88,25.09 6.65,10.83 19.6,17.26 32.14,16.07 7.85,-0.76 22.2,-5.22 30.15,-26.56 4.65,-12.49 0.62,-24.45 -11.36,-33.68 -10.09,-7.76 -25.49,-12.76 -40.26,-12.76"
         style="fill:#06005a;fill-opacity:1;fill-rule:nonzero;stroke:none"
         id="path242" /><path
         d="m 3323.53,2730.73 c -0.31,-5.95 -4.82,-11.4 -12.83,-15.19 -4.11,-1.95 -8.42,-2.87 -12.53,-2.87 -10.88,0 -20.84,5.95 -26.07,14.06 -5.44,8.52 -6.57,21.55 6.77,32.85 9.86,8.31 21.56,11.7 33.78,9.75 12.11,-1.85 22.58,-8.21 30.59,-15.5 0.61,-1.54 1.03,-3.18 1.33,-4.93 -7.9,8.21 -19.19,15.81 -32.34,17.86 -11.7,1.85 -22.27,-1.23 -31.61,-9.13 -10.37,-8.62 -12.63,-19.71 -6.36,-29.57 6.67,-10.16 21.66,-16.83 35.31,-10.16 7.08,3.39 11.19,8.01 11.39,12.93 0.21,4.11 -2.25,8.22 -6.36,10.58 -4.21,2.56 -9.14,2.67 -13.24,0.2 -0.62,-0.31 -1.44,-0.1 -1.75,0.52 -0.41,0.61 -0.21,1.33 0.41,1.74 4.93,2.87 10.88,2.77 15.92,-0.21 4.92,-2.87 7.79,-7.9 7.59,-12.93"
         style="fill:#06005a;fill-opacity:1;fill-rule:nonzero;stroke:none"
         id="path244" /><path
         d="m 3320.04,2789.24 c -0.92,-0.61 -1.95,-1.13 -2.98,-1.53 -18.37,7.38 -34.49,17.24 -40.44,33.66 -3.49,9.45 -2.06,19.2 3.9,25.97 5.54,6.47 14.27,9.14 23.2,7.3 10.06,-2.16 17.75,-8.94 20.32,-17.66 1.95,-6.88 0.21,-13.66 -4.92,-18.69 -6.68,-6.67 -15.4,-5.03 -21.05,-0.41 -5.44,4.52 -7.08,10.98 -4,15.61 0.41,0.61 1.23,0.82 1.74,0.41 0.62,-0.41 0.83,-1.23 0.41,-1.75 -2.77,-4.21 -0.1,-9.24 3.5,-12.21 4.72,-3.91 12.01,-5.34 17.65,0.1 4.41,4.41 5.95,10.27 4.21,16.22 -2.26,7.7 -9.44,13.96 -18.38,15.81 -8,1.74 -15.8,-0.72 -20.83,-6.47 -5.34,-6.06 -6.58,-14.57 -3.29,-23.3 5.75,-16.12 22.38,-25.67 40.96,-33.06"
         style="fill:#06005a;fill-opacity:1;fill-rule:nonzero;stroke:none"
         id="path246" /><path
         d="m 3351.76,2896.21 c -0.1,-1.75 -0.41,-3.49 -0.82,-5.13 -1.96,6.36 -5.34,12.42 -9.86,17.55 -9.23,10.27 -21.56,15.29 -34.9,13.96 -15.09,-1.44 -20.63,-9.86 -20.84,-17.25 -0.2,-8.72 7.09,-19.19 20.94,-21.24 9.86,-1.44 14.68,2.15 17.15,5.33 3.49,4.83 3.28,10.99 1.54,14.68 -0.72,1.64 -2.47,4.21 -5.65,4.41 -4.52,0.32 -7.8,-1.23 -9.13,-4.1 -1.24,-2.67 -0.52,-5.75 0.92,-7.29 0.51,-0.51 0.41,-1.33 -0.1,-1.75 -0.52,-0.51 -1.23,-0.51 -1.75,0 -2.36,2.47 -2.98,6.78 -1.44,10.17 1.13,2.26 3.91,5.95 11.6,5.54 3.29,-0.2 6.16,-2.36 7.8,-5.85 2.57,-5.34 1.85,-12.52 -1.74,-17.35 -4.01,-5.33 -10.98,-7.6 -19.61,-6.26 -15.29,2.16 -23.3,13.86 -23.09,23.82 0.2,8.41 6.46,18.06 23.2,19.71 14.06,1.33 27.2,-3.91 36.95,-14.79 3.8,-4.2 6.77,-9.03 8.83,-14.16"
         style="fill:#06005a;fill-opacity:1;fill-rule:nonzero;stroke:none"
         id="path248" /><path
         d="m 3355.86,2971.35 c -2.46,-9.34 -8.52,-11.81 -12.93,-11.09 -5.23,0.93 -8.83,5.85 -8.32,11.5 0.11,0.72 0.62,1.33 1.34,1.13 0.72,0 1.23,-0.62 1.23,-1.34 -0.41,-4.82 2.88,-8.11 6.26,-8.72 3.39,-0.62 7.91,1.43 9.96,9.14 2.06,8 -4.11,15.08 -10.98,17.76 -6.88,2.67 -16.22,1.64 -21.97,-9.35 -9.03,-17.35 6.36,-34.59 22.07,-46.7 -1.13,-0.21 -2.36,-0.41 -3.59,-0.41 -15.71,12.62 -30.18,30.28 -20.74,48.34 6.47,12.43 17.55,13.45 25.15,10.47 7.91,-3.07 14.99,-11.39 12.52,-20.73"
         style="fill:#06005a;fill-opacity:1;fill-rule:nonzero;stroke:none"
         id="path250" /><path
         d="m 3586.63,2626.54 c -8.73,-8.01 -19.92,-10.78 -28.54,-7.08 -8.42,3.79 -13.14,13.24 -13.14,26.68 0,0.72 0.62,1.24 1.34,1.24 0.71,0 1.23,-0.52 1.23,-1.24 0,-12.42 4.21,-21.04 11.6,-24.32 7.7,-3.29 17.76,-0.72 25.76,6.67 7.39,6.77 8.22,21.45 1.75,32.75 -3.49,6.26 -14.58,20.01 -39.93,12.31 -13.45,-4.11 -22.07,-12.11 -25.66,-24.02 -3.4,-11.08 -1.96,-24.33 2.25,-36.44 -1.74,2.15 -3.28,4.52 -4.62,6.98 -2.56,10.37 -2.97,20.94 -0.1,30.18 3.8,12.73 13.04,21.46 27.3,25.77 27.21,8.21 39.22,-6.78 43.02,-13.55 6.98,-12.32 5.95,-28.34 -2.26,-35.93"
         style="fill:#06005a;fill-opacity:1;fill-rule:nonzero;stroke:none"
         id="path252" /><path
         d="m 3582.42,2719.65 c -3.29,-3.19 -9.14,-4.83 -15.3,-4.83 -5.95,0 -12.11,1.54 -16.52,4.41 -6.98,4.62 -8.93,12.02 -5.55,20.74 0.31,0.72 1.03,1.02 1.65,0.72 0.72,-0.21 1.02,-0.93 0.82,-1.64 -3.8,-9.65 0.3,-14.89 4.51,-17.66 8.73,-5.75 23.51,-4.82 28.54,0.1 5.03,4.83 8.21,17.45 5.03,28.44 -1.95,6.46 -6.87,14.78 -19.61,17.35 -11.39,2.36 -23.4,-0.31 -33.46,-7.6 -4,-2.87 -7.6,-6.36 -10.57,-10.16 0.3,1.84 0.72,3.69 1.23,5.44 0,0 0.1,0 0.1,0.1 2.36,2.36 4.93,4.72 7.7,6.67 10.68,7.7 23.3,10.58 35.52,8.11 13.96,-2.87 19.4,-12.01 21.55,-19.19 3.5,-11.91 -0.1,-25.67 -5.64,-31"
         style="fill:#06005a;fill-opacity:1;fill-rule:nonzero;stroke:none"
         id="path254" /><path
         d="m 3582.93,2805.98 c -7.59,-7.4 -20.94,-11.81 -36.13,-12.53 -1.34,0.72 -2.57,1.54 -3.69,2.47 16.01,0.1 30.28,4.31 37.98,11.9 5.23,5.14 7.18,11.29 5.85,18.38 -1.95,9.75 -6.68,16.53 -13.76,19.61 -7.7,3.38 -17.76,2.15 -26.18,-3.19 -6.16,-3.8 -9.03,-9.95 -7.59,-15.91 1.64,-6.36 7.59,-10.68 15.7,-11.19 5.24,-0.41 8.83,0.72 10.78,3.18 3.08,4.01 1.03,10.47 1.03,10.58 -0.21,0.61 0.1,1.33 0.82,1.54 0.72,0.31 1.44,-0.11 1.64,-0.82 0.1,-0.31 2.47,-7.8 -1.43,-12.83 -2.57,-3.29 -6.78,-4.62 -13.04,-4.21 -9.24,0.61 -16.12,5.64 -17.97,13.14 -1.74,7.08 1.55,14.26 8.63,18.68 9.24,5.75 20.22,7.08 28.64,3.38 5.54,-2.35 12.62,-8 15.19,-21.45 1.54,-7.9 -0.72,-15.09 -6.47,-20.73"
         style="fill:#06005a;fill-opacity:1;fill-rule:nonzero;stroke:none"
         id="path256" /><path
         d="m 3585.71,2896 c -3.09,-9.13 -10.17,-14.47 -18.79,-14.47 h -0.62 c -13.96,0.51 -18.88,11.9 -18.78,19.4 0.1,6.05 3.08,10.16 7.49,10.16 0.72,0 1.34,-0.61 1.34,-1.23 0,-0.72 -0.62,-1.34 -1.34,-1.34 -3.28,0 -4.82,-3.79 -4.92,-7.59 -0.11,-6.57 4.1,-16.42 16.21,-16.73 7.8,-0.41 14.17,4.41 17.04,12.62 2.88,8.32 1.54,19.92 -6.67,25.98 -13.34,9.95 -26.38,6.67 -46.91,-12.32 0.1,1.33 0.21,2.77 0.61,4.1 17.45,15.71 32.03,22.07 47.84,10.27 9.65,-7.09 10.68,-20.02 7.5,-28.85"
         style="fill:#06005a;fill-opacity:1;fill-rule:nonzero;stroke:none"
         id="path258" /><path
         d="m 3556.24,2957.29 c -6.98,-8.83 -20.02,-13.76 -34.9,-13.76 -1.33,0.82 -2.46,1.75 -3.59,2.67 15.4,-0.82 29.46,4 36.54,12.73 4.52,5.65 5.44,12.32 2.67,19.09 -3.59,8.93 -9.75,13.96 -16.94,13.96 0,0 0,0 -0.1,0 -6.26,0 -12.01,-4.21 -14.57,-10.78 -2.88,-7.39 0.71,-12.21 4.72,-14.27 3.69,-1.84 8.93,-1.74 11.8,2.78 0.31,0.61 1.13,0.82 1.75,0.41 0.61,-0.41 0.72,-1.13 0.41,-1.75 -3.59,-5.65 -10.37,-6.16 -15.19,-3.69 -5.24,2.67 -9.14,9.13 -5.85,17.45 2.97,7.49 9.54,12.42 16.93,12.42 8.21,0.1 15.5,-5.75 19.51,-15.61 3.07,-7.59 1.95,-15.29 -3.19,-21.65"
         style="fill:#06005a;fill-opacity:1;fill-rule:nonzero;stroke:none"
         id="path260" /><path
         d="m 3384.33,2986.8 c -0.15,0 -0.3,0.02 -0.45,0.08 -0.66,0.24 -1,0.98 -0.76,1.64 0.09,0.24 8.49,24.02 -9.64,46.88 -0.43,0.56 -0.34,1.37 0.22,1.81 0.55,0.43 1.36,0.34 1.8,-0.21 19.04,-24.03 10.12,-49.11 10.03,-49.36 -0.19,-0.52 -0.68,-0.84 -1.2,-0.84"
         style="fill:#06005a;fill-opacity:1;fill-rule:nonzero;stroke:none"
         id="path262" /><path
         d="m 3464.52,3004.76 c -0.34,0 -0.68,0.14 -0.93,0.41 -0.49,0.51 -0.46,1.32 0.05,1.81 24.29,23.04 23.34,58.97 23.33,59.33 -0.02,0.71 0.53,1.3 1.24,1.33 0,0 0.03,0 0.04,0 0.69,0 1.25,-0.55 1.29,-1.24 0,-0.37 1.02,-37.42 -24.14,-61.29 -0.25,-0.23 -0.56,-0.35 -0.88,-0.35"
         style="fill:#06005a;fill-opacity:1;fill-rule:nonzero;stroke:none"
         id="path264" /><path
         d="m 3490.83,3004.76 c -0.43,0 -0.85,0.22 -1.1,0.62 -0.36,0.59 -0.18,1.39 0.43,1.76 24.04,14.8 26.38,26.59 26.4,26.71 0.12,0.69 0.77,1.17 1.47,1.05 0.71,-0.12 1.18,-0.78 1.05,-1.47 -0.07,-0.52 -2.35,-12.95 -27.58,-28.48 -0.21,-0.13 -0.44,-0.19 -0.67,-0.19"
         style="fill:#06005a;fill-opacity:1;fill-rule:nonzero;stroke:none"
         id="path266" /><path
         d="m 3403.46,2880.99 c 0,-8.44 -2.82,-15.29 -6.3,-15.29 -3.49,0 -6.31,6.85 -6.31,15.29 0,8.44 2.82,15.28 6.31,15.28 3.48,0 6.3,-6.84 6.3,-15.28"
         style="fill:#06005a;fill-opacity:1;fill-rule:nonzero;stroke:none"
         id="path268" /><path
         d="m 3504.29,2880.99 c 0,-8.44 -2.82,-15.29 -6.3,-15.29 -3.49,0 -6.31,6.85 -6.31,15.29 0,8.44 2.82,15.28 6.31,15.28 3.48,0 6.3,-6.84 6.3,-15.28"
         style="fill:#06005a;fill-opacity:1;fill-rule:nonzero;stroke:none"
         id="path270" /><path
         d="m 1839.67,4107 c -8.91,0 -16.2,7.28 -16.2,16.19 v 97.47 c 0,8.91 7.29,16.2 16.2,16.2 8.91,0 16.2,-7.29 16.2,-16.2 v -97.47 c 0,-8.91 -7.29,-16.19 -16.2,-16.19"
         style="fill:#06005a;fill-opacity:1;fill-rule:nonzero;stroke:none"
         id="path272" /><path
         d="m 5835.93,4118.97 c -8.91,0 -16.2,7.29 -16.2,16.2 v 97.47 c 0,8.91 7.29,16.2 16.2,16.2 8.91,0 16.2,-7.29 16.2,-16.2 v -97.47 c 0,-8.91 -7.29,-16.2 -16.2,-16.2"
         style="fill:#06005a;fill-opacity:1;fill-rule:nonzero;stroke:none"
         id="path274" /></g></g></svg>
