<svg width="106" height="40" viewBox="0 0 106 40" fill="none" xmlns="http://www.w3.org/2000/svg">
    <line x1="48.5" x2="48.5" y2="40" stroke="white"/>
    <path d="M56.5116 17V4.4H59.4276V14.624H65.7456V17H56.5116ZM65.7892 17L71.4052 4.4H74.2852L79.9192 17H76.8592L72.2512 5.876H73.4032L68.7772 17H65.7892ZM68.5972 14.3L69.3712 12.086H75.8512L76.6432 14.3H68.5972ZM83.5649 17L79.4429 4.4H82.4669L86.0489 15.56H84.5369L88.2809 4.4H90.9809L94.5809 15.56H93.1229L96.7949 4.4H99.5849L95.4629 17H92.3309L89.1449 7.208H89.9729L86.6969 17H83.5649ZM59.7203 39.216C58.7483 39.216 57.8423 39.06 57.0023 38.748C56.1743 38.424 55.4543 37.968 54.8423 37.38C54.2303 36.792 53.7503 36.102 53.4023 35.31C53.0663 34.518 52.8983 33.648 52.8983 32.7C52.8983 31.752 53.0663 30.882 53.4023 30.09C53.7503 29.298 54.2303 28.608 54.8423 28.02C55.4663 27.432 56.1923 26.982 57.0203 26.67C57.8483 26.346 58.7543 26.184 59.7383 26.184C60.8303 26.184 61.8143 26.376 62.6903 26.76C63.5783 27.132 64.3223 27.684 64.9223 28.416L63.0503 30.144C62.6183 29.652 62.1383 29.286 61.6103 29.046C61.0823 28.794 60.5063 28.668 59.8823 28.668C59.2943 28.668 58.7543 28.764 58.2623 28.956C57.7703 29.148 57.3443 29.424 56.9843 29.784C56.6243 30.144 56.3423 30.57 56.1383 31.062C55.9463 31.554 55.8503 32.1 55.8503 32.7C55.8503 33.3 55.9463 33.846 56.1383 34.338C56.3423 34.83 56.6243 35.256 56.9843 35.616C57.3443 35.976 57.7703 36.252 58.2623 36.444C58.7543 36.636 59.2943 36.732 59.8823 36.732C60.5063 36.732 61.0823 36.612 61.6103 36.372C62.1383 36.12 62.6183 35.742 63.0503 35.238L64.9223 36.966C64.3223 37.698 63.5783 38.256 62.6903 38.64C61.8143 39.024 60.8243 39.216 59.7203 39.216ZM65.0069 39L70.6229 26.4H73.5029L79.1369 39H76.0769L71.4689 27.876H72.6209L67.9949 39H65.0069ZM67.8149 36.3L68.5889 34.086H75.0689L75.8609 36.3H67.8149ZM80.4442 39V26.4H83.3602V36.624H89.6782V39H80.4442ZM97.1265 39.216C96.1545 39.216 95.2485 39.06 94.4085 38.748C93.5805 38.424 92.8605 37.968 92.2485 37.38C91.6365 36.792 91.1565 36.102 90.8085 35.31C90.4725 34.518 90.3045 33.648 90.3045 32.7C90.3045 31.752 90.4725 30.882 90.8085 30.09C91.1565 29.298 91.6365 28.608 92.2485 28.02C92.8725 27.432 93.5985 26.982 94.4265 26.67C95.2545 26.346 96.1605 26.184 97.1445 26.184C98.2365 26.184 99.2205 26.376 100.097 26.76C100.985 27.132 101.729 27.684 102.329 28.416L100.457 30.144C100.025 29.652 99.5445 29.286 99.0165 29.046C98.4885 28.794 97.9125 28.668 97.2885 28.668C96.7005 28.668 96.1605 28.764 95.6685 28.956C95.1765 29.148 94.7505 29.424 94.3905 29.784C94.0305 30.144 93.7485 30.57 93.5445 31.062C93.3525 31.554 93.2565 32.1 93.2565 32.7C93.2565 33.3 93.3525 33.846 93.5445 34.338C93.7485 34.83 94.0305 35.256 94.3905 35.616C94.7505 35.976 95.1765 36.252 95.6685 36.444C96.1605 36.636 96.7005 36.732 97.2885 36.732C97.9125 36.732 98.4885 36.612 99.0165 36.372C99.5445 36.12 100.025 35.742 100.457 35.238L102.329 36.966C101.729 37.698 100.985 38.256 100.097 38.64C99.2205 39.024 98.2305 39.216 97.1265 39.216Z" fill="white"/>
    <path d="M1 20H20V39H3C1.89543 39 1 38.1046 1 37V20Z" stroke="white" stroke-width="2"/>
    <path d="M20 20H39V37C39 38.1046 38.1046 39 37 39H20V20Z" stroke="white" stroke-width="2"/>
    <path d="M20 1H37C38.1046 1 39 1.89543 39 3V20H20V1Z" stroke="white" stroke-width="2"/>
    <path d="M3 1H20V20H1V3C1 1.89543 1.89543 1 3 1Z" stroke="white" stroke-width="2"/>
    <line x1="25.5" y1="10.5" x2="33.5" y2="10.5" stroke="white" stroke-linecap="round"/>
    <line x1="25.5" y1="27.5" x2="33.5" y2="27.5" stroke="white" stroke-linecap="round"/>
    <line x1="25.5" y1="31.5" x2="33.5" y2="31.5" stroke="white" stroke-linecap="round"/>
    <line x1="6.5" y1="10.5" x2="14.5" y2="10.5" stroke="white" stroke-linecap="round"/>
    <line x1="10.5" y1="6.5" x2="10.5" y2="14.5" stroke="white" stroke-linecap="round"/>
    <line x1="7.59981" y1="26.4713" x2="13.2567" y2="32.1281" stroke="white" stroke-linecap="round"/>
    <line x1="13.2567" y1="26.5998" x2="7.5998" y2="32.2567" stroke="white" stroke-linecap="round"/>
</svg>
