<svg width="107" height="64" viewBox="0 0 107 64" fill="none" xmlns="http://www.w3.org/2000/svg">
<g filter="url(#filter0_d_2_20)">
<rect x="5" y="1" width="37" height="54" rx="1" stroke="white" stroke-width="2" shape-rendering="crispEdges"/>
</g>
<rect x="9.5" y="4.5" width="28" height="7" rx="0.5" fill="#FFFEFE" stroke="white"/>
<rect x="9.5" y="15.5" width="6" height="6" rx="0.5" stroke="white"/>
<rect x="20.5" y="15.5" width="6" height="6" rx="0.5" stroke="white"/>
<rect x="31.5" y="15.5" width="6" height="6" rx="0.5" stroke="white"/>
<rect x="9.5" y="25.5" width="6" height="6" rx="0.5" stroke="white"/>
<rect x="20.5" y="25.5" width="6" height="6" rx="0.5" stroke="white"/>
<rect x="31.5" y="25.5" width="6" height="6" rx="0.5" stroke="white"/>
<rect x="9.5" y="35.5" width="6" height="6" rx="0.5" stroke="white"/>
<rect x="20.5" y="35.5" width="6" height="6" rx="0.5" stroke="white"/>
<rect x="20.5" y="45.5" width="17" height="6" rx="0.5" fill="white" stroke="white"/>
<rect x="31.5" y="35.5" width="6" height="6" rx="0.5" stroke="white"/>
<line x1="58.5" x2="58.5" y2="56" stroke="white"/>
<path d="M75.996 15.6H77.94V22.416H82.152V24H75.996V15.6ZM88.8405 22.2H84.9405L84.1965 24H82.2045L85.9485 15.6H87.8685L91.6245 24H89.5845L88.8405 22.2ZM88.2285 20.724L86.8965 17.508L85.5645 20.724H88.2285ZM104.735 15.6L101.987 24H99.899L98.051 18.312L96.143 24H94.067L91.307 15.6H93.323L95.219 21.504L97.199 15.6H98.999L100.919 21.552L102.875 15.6H104.735ZM78.1527 39.144C77.2967 39.144 76.5207 38.96 75.8247 38.592C75.1367 38.216 74.5927 37.7 74.1927 37.044C73.8007 36.38 73.6047 35.632 73.6047 34.8C73.6047 33.968 73.8007 33.224 74.1927 32.568C74.5927 31.904 75.1367 31.388 75.8247 31.02C76.5207 30.644 77.3007 30.456 78.1647 30.456C78.8927 30.456 79.5487 30.584 80.1327 30.84C80.7247 31.096 81.2207 31.464 81.6207 31.944L80.3727 33.096C79.8047 32.44 79.1007 32.112 78.2607 32.112C77.7407 32.112 77.2767 32.228 76.8687 32.46C76.4607 32.684 76.1407 33 75.9087 33.408C75.6847 33.816 75.5727 34.28 75.5727 34.8C75.5727 35.32 75.6847 35.784 75.9087 36.192C76.1407 36.6 76.4607 36.92 76.8687 37.152C77.2767 37.376 77.7407 37.488 78.2607 37.488C79.1007 37.488 79.8047 37.156 80.3727 36.492L81.6207 37.644C81.2207 38.132 80.7247 38.504 80.1327 38.76C79.5407 39.016 78.8807 39.144 78.1527 39.144ZM88.3014 37.2H84.4014L83.6574 39H81.6654L85.4094 30.6H87.3294L91.0854 39H89.0454L88.3014 37.2ZM87.6894 35.724L86.3574 32.508L85.0254 35.724H87.6894ZM91.9569 30.6H93.9009V37.416H98.1129V39H91.9569V30.6ZM103.079 39.144C102.223 39.144 101.447 38.96 100.751 38.592C100.063 38.216 99.5185 37.7 99.1185 37.044C98.7265 36.38 98.5305 35.632 98.5305 34.8C98.5305 33.968 98.7265 33.224 99.1185 32.568C99.5185 31.904 100.063 31.388 100.751 31.02C101.447 30.644 102.227 30.456 103.091 30.456C103.819 30.456 104.475 30.584 105.059 30.84C105.651 31.096 106.147 31.464 106.547 31.944L105.299 33.096C104.731 32.44 104.027 32.112 103.187 32.112C102.667 32.112 102.203 32.228 101.795 32.46C101.387 32.684 101.067 33 100.835 33.408C100.611 33.816 100.499 34.28 100.499 34.8C100.499 35.32 100.611 35.784 100.835 36.192C101.067 36.6 101.387 36.92 101.795 37.152C102.203 37.376 102.667 37.488 103.187 37.488C104.027 37.488 104.731 37.156 105.299 36.492L106.547 37.644C106.147 38.132 105.651 38.504 105.059 38.76C104.467 39.016 103.807 39.144 103.079 39.144Z" fill="white"/>
<defs>
<filter id="filter0_d_2_20" x="0" y="0" width="47" height="64" filterUnits="userSpaceOnUse" color-interpolation-filters="sRGB">
<feFlood flood-opacity="0" result="BackgroundImageFix"/>
<feColorMatrix in="SourceAlpha" type="matrix" values="0 0 0 0 0 0 0 0 0 0 0 0 0 0 0 0 0 0 127 0" result="hardAlpha"/>
<feOffset dy="4"/>
<feGaussianBlur stdDeviation="2"/>
<feComposite in2="hardAlpha" operator="out"/>
<feColorMatrix type="matrix" values="0 0 0 0 0 0 0 0 0 0 0 0 0 0 0 0 0 0 0.25 0"/>
<feBlend mode="normal" in2="BackgroundImageFix" result="effect1_dropShadow_2_20"/>
<feBlend mode="normal" in="SourceGraphic" in2="effect1_dropShadow_2_20" result="shape"/>
</filter>
</defs>
</svg>
